<mxfile host="Electron" modified="2023-11-09T09:13:55.060Z" agent="Mozilla/5.0 (Macintosh; Intel Mac OS X 10_15_7) AppleWebKit/537.36 (KHTML, like Gecko) draw.io/21.3.7 Chrome/112.0.5615.204 Electron/24.5.0 Safari/537.36" etag="CS27YK6CyM2b9eXCIlZ9" version="21.3.7" type="device" pages="2">
  <diagram name="IDS Account" id="Vmj3-iElVKvDOlGkBP9f">
    <mxGraphModel dx="1420" dy="840" grid="1" gridSize="10" guides="1" tooltips="1" connect="1" arrows="1" fold="1" page="1" pageScale="1" pageWidth="827" pageHeight="1169" math="0" shadow="0">
      <root>
        <mxCell id="0" />
        <mxCell id="1" parent="0" />
        <mxCell id="cykdBwdM0Bds0NIfHY12-3" value="Identity" style="rounded=0;whiteSpace=wrap;html=1;strokeColor=#7030A0;fontColor=#7030A0;fontStyle=1;verticalAlign=middle;align=left;spacingLeft=3;" parent="1" vertex="1">
          <mxGeometry x="7" y="9" width="200" height="30" as="geometry" />
        </mxCell>
        <mxCell id="cykdBwdM0Bds0NIfHY12-5" value="" style="rounded=0;whiteSpace=wrap;html=1;strokeColor=#7030A0;fillColor=#f5f5f5;fontColor=#333333;" parent="1" vertex="1">
          <mxGeometry x="7" y="39" width="200" height="650" as="geometry" />
        </mxCell>
        <mxCell id="cykdBwdM0Bds0NIfHY12-6" value="User Login" style="rounded=0;whiteSpace=wrap;html=1;strokeColor=#FFFFFF;fillColor=#7030A0;fontColor=#FFFFFF;align=left;spacingLeft=3;" parent="1" vertex="1">
          <mxGeometry x="14.873999999999999" y="106.08999999999997" width="180" height="30" as="geometry" />
        </mxCell>
        <mxCell id="cykdBwdM0Bds0NIfHY12-7" value="Password" style="rounded=0;whiteSpace=wrap;html=1;strokeColor=#FFFFFF;fillColor=#7030A0;fontColor=#FFFFFF;align=left;spacingLeft=3;" parent="1" vertex="1">
          <mxGeometry x="14.873999999999999" y="136.08999999999997" width="180" height="30" as="geometry" />
        </mxCell>
        <mxCell id="cykdBwdM0Bds0NIfHY12-8" value="Last Name" style="rounded=0;whiteSpace=wrap;html=1;strokeColor=#FFFFFF;fillColor=#7030A0;fontColor=#FFFFFF;align=left;spacingLeft=3;" parent="1" vertex="1">
          <mxGeometry x="14.873999999999999" y="256.09" width="180" height="30" as="geometry" />
        </mxCell>
        <mxCell id="cykdBwdM0Bds0NIfHY12-9" value="First Name" style="rounded=0;whiteSpace=wrap;html=1;strokeColor=#FFFFFF;fillColor=#7030A0;fontColor=#FFFFFF;align=left;spacingLeft=3;" parent="1" vertex="1">
          <mxGeometry x="14.873999999999999" y="286.0899999999999" width="180" height="30" as="geometry" />
        </mxCell>
        <mxCell id="cykdBwdM0Bds0NIfHY12-10" value="IDS Account" style="rounded=0;whiteSpace=wrap;html=1;strokeColor=#5B9BD5;fontColor=#5B9BD5;fontStyle=1;verticalAlign=middle;align=left;spacingLeft=3;" parent="1" vertex="1">
          <mxGeometry x="250" y="9" width="490" height="30" as="geometry" />
        </mxCell>
        <mxCell id="cykdBwdM0Bds0NIfHY12-11" value="" style="rounded=0;whiteSpace=wrap;html=1;strokeColor=#5B9BD5;fillColor=#f5f5f5;fontColor=#333333;" parent="1" vertex="1">
          <mxGeometry x="250" y="39" width="490" height="650" as="geometry" />
        </mxCell>
        <mxCell id="cykdBwdM0Bds0NIfHY12-13" value="" style="shape=table;startSize=0;container=1;collapsible=0;childLayout=tableLayout;fillColor=#5B9BD5;strokeColor=#5B9BD5;fontColor=#FFFFFF;spacingRight=3;spacingLeft=3;" parent="1" vertex="1">
          <mxGeometry x="260" y="46.09" width="470" height="630" as="geometry" />
        </mxCell>
        <mxCell id="cykdBwdM0Bds0NIfHY12-14" value="" style="shape=tableRow;horizontal=0;startSize=0;swimlaneHead=0;swimlaneBody=0;strokeColor=inherit;top=0;left=0;bottom=0;right=0;collapsible=0;dropTarget=0;fillColor=none;points=[[0,0.5],[1,0.5]];portConstraint=eastwest;fontColor=#FFFFFF;" parent="cykdBwdM0Bds0NIfHY12-13" vertex="1">
          <mxGeometry width="470" height="30" as="geometry" />
        </mxCell>
        <mxCell id="cykdBwdM0Bds0NIfHY12-15" value="2" style="shape=partialRectangle;html=1;whiteSpace=wrap;connectable=0;overflow=hidden;fillColor=none;top=0;left=0;bottom=0;right=0;pointerEvents=1;align=right;spacingLeft=3;fontColor=#FFFFFF;" parent="cykdBwdM0Bds0NIfHY12-14" vertex="1">
          <mxGeometry width="24" height="30" as="geometry">
            <mxRectangle width="24" height="30" as="alternateBounds" />
          </mxGeometry>
        </mxCell>
        <mxCell id="cykdBwdM0Bds0NIfHY12-16" value="Service" style="shape=partialRectangle;html=1;whiteSpace=wrap;connectable=0;strokeColor=#BD0100;overflow=hidden;fillColor=none;top=0;left=0;bottom=0;right=0;pointerEvents=1;align=left;spacingLeft=3;fontColor=#FFFFFF;" parent="cykdBwdM0Bds0NIfHY12-14" vertex="1">
          <mxGeometry x="24" width="156" height="30" as="geometry">
            <mxRectangle width="156" height="30" as="alternateBounds" />
          </mxGeometry>
        </mxCell>
        <mxCell id="cykdBwdM0Bds0NIfHY12-17" value="UD_IDS_USR_SERVER" style="shape=partialRectangle;html=1;whiteSpace=wrap;connectable=0;strokeColor=#BD0100;overflow=hidden;fillColor=none;top=0;left=0;bottom=0;right=0;pointerEvents=1;align=left;spacingLeft=3;fontColor=#FFFFFF;" parent="cykdBwdM0Bds0NIfHY12-14" vertex="1">
          <mxGeometry x="180" width="190" height="30" as="geometry">
            <mxRectangle width="190" height="30" as="alternateBounds" />
          </mxGeometry>
        </mxCell>
        <mxCell id="cykdBwdM0Bds0NIfHY12-18" value="long" style="shape=partialRectangle;html=1;whiteSpace=wrap;connectable=0;strokeColor=#BD0100;overflow=hidden;fillColor=none;top=0;left=0;bottom=0;right=0;pointerEvents=1;align=left;spacingLeft=3;fontColor=#FFFFFF;" parent="cykdBwdM0Bds0NIfHY12-14" vertex="1">
          <mxGeometry x="370" width="45" height="30" as="geometry">
            <mxRectangle width="45" height="30" as="alternateBounds" />
          </mxGeometry>
        </mxCell>
        <mxCell id="cykdBwdM0Bds0NIfHY12-29" style="shape=partialRectangle;html=1;whiteSpace=wrap;connectable=0;strokeColor=#BD0100;overflow=hidden;fillColor=none;top=0;left=0;bottom=0;right=0;pointerEvents=1;align=left;spacingLeft=3;fontColor=#FFFFFF;" parent="cykdBwdM0Bds0NIfHY12-14" vertex="1">
          <mxGeometry x="415" width="55" height="30" as="geometry">
            <mxRectangle width="55" height="30" as="alternateBounds" />
          </mxGeometry>
        </mxCell>
        <mxCell id="cykdBwdM0Bds0NIfHY12-24" style="shape=tableRow;horizontal=0;startSize=0;swimlaneHead=0;swimlaneBody=0;strokeColor=inherit;top=0;left=0;bottom=0;right=0;collapsible=0;dropTarget=0;fillColor=none;points=[[0,0.5],[1,0.5]];portConstraint=eastwest;fontColor=#FFFFFF;" parent="cykdBwdM0Bds0NIfHY12-13" vertex="1">
          <mxGeometry y="30" width="470" height="30" as="geometry" />
        </mxCell>
        <mxCell id="cykdBwdM0Bds0NIfHY12-25" value="4" style="shape=partialRectangle;html=1;whiteSpace=wrap;connectable=0;strokeColor=inherit;overflow=hidden;fillColor=none;top=0;left=0;bottom=0;right=0;pointerEvents=1;align=right;spacingLeft=3;fontColor=#FFFFFF;" parent="cykdBwdM0Bds0NIfHY12-24" vertex="1">
          <mxGeometry width="24" height="30" as="geometry">
            <mxRectangle width="24" height="30" as="alternateBounds" />
          </mxGeometry>
        </mxCell>
        <mxCell id="cykdBwdM0Bds0NIfHY12-26" value="Container DN" style="shape=partialRectangle;html=1;whiteSpace=wrap;connectable=0;strokeColor=inherit;overflow=hidden;fillColor=none;top=0;left=0;bottom=0;right=0;pointerEvents=1;align=left;spacingLeft=3;fontColor=#FFFFFF;" parent="cykdBwdM0Bds0NIfHY12-24" vertex="1">
          <mxGeometry x="24" width="156" height="30" as="geometry">
            <mxRectangle width="156" height="30" as="alternateBounds" />
          </mxGeometry>
        </mxCell>
        <mxCell id="cykdBwdM0Bds0NIfHY12-27" value="UD_IDS_USR_ORGANIZATION" style="shape=partialRectangle;html=1;whiteSpace=wrap;connectable=0;strokeColor=inherit;overflow=hidden;fillColor=none;top=0;left=0;bottom=0;right=0;pointerEvents=1;align=left;spacingLeft=3;fontColor=#FFFFFF;" parent="cykdBwdM0Bds0NIfHY12-24" vertex="1">
          <mxGeometry x="180" width="190" height="30" as="geometry">
            <mxRectangle width="190" height="30" as="alternateBounds" />
          </mxGeometry>
        </mxCell>
        <mxCell id="cykdBwdM0Bds0NIfHY12-28" value="String" style="shape=partialRectangle;html=1;whiteSpace=wrap;connectable=0;strokeColor=inherit;overflow=hidden;fillColor=none;top=0;left=0;bottom=0;right=0;pointerEvents=1;align=left;spacingLeft=3;fontColor=#FFFFFF;" parent="cykdBwdM0Bds0NIfHY12-24" vertex="1">
          <mxGeometry x="370" width="45" height="30" as="geometry">
            <mxRectangle width="45" height="30" as="alternateBounds" />
          </mxGeometry>
        </mxCell>
        <mxCell id="cykdBwdM0Bds0NIfHY12-30" value="400" style="shape=partialRectangle;whiteSpace=wrap;connectable=0;strokeColor=inherit;overflow=hidden;fillColor=none;top=0;left=0;bottom=0;right=0;pointerEvents=1;align=right;spacingLeft=3;fontColor=#FFFFFF;spacingRight=3;" parent="cykdBwdM0Bds0NIfHY12-24" vertex="1">
          <mxGeometry x="415" width="55" height="30" as="geometry">
            <mxRectangle width="55" height="30" as="alternateBounds" />
          </mxGeometry>
        </mxCell>
        <mxCell id="cykdBwdM0Bds0NIfHY12-31" style="shape=tableRow;horizontal=0;startSize=0;swimlaneHead=0;swimlaneBody=0;strokeColor=inherit;top=0;left=0;bottom=0;right=0;collapsible=0;dropTarget=0;fillColor=none;points=[[0,0.5],[1,0.5]];portConstraint=eastwest;fontColor=#FFFFFF;" parent="cykdBwdM0Bds0NIfHY12-13" vertex="1">
          <mxGeometry y="60" width="470" height="30" as="geometry" />
        </mxCell>
        <mxCell id="cykdBwdM0Bds0NIfHY12-32" value="6" style="shape=partialRectangle;html=1;whiteSpace=wrap;connectable=0;strokeColor=inherit;overflow=hidden;fillColor=none;top=0;left=0;bottom=0;right=0;pointerEvents=1;align=right;spacingLeft=3;fontColor=#FFFFFF;" parent="cykdBwdM0Bds0NIfHY12-31" vertex="1">
          <mxGeometry width="24" height="30" as="geometry">
            <mxRectangle width="24" height="30" as="alternateBounds" />
          </mxGeometry>
        </mxCell>
        <mxCell id="cykdBwdM0Bds0NIfHY12-33" value="User ID" style="shape=partialRectangle;html=1;whiteSpace=wrap;connectable=0;strokeColor=inherit;overflow=hidden;fillColor=none;top=0;left=0;bottom=0;right=0;pointerEvents=1;align=left;spacingLeft=3;fontColor=#FFFFFF;" parent="cykdBwdM0Bds0NIfHY12-31" vertex="1">
          <mxGeometry x="24" width="156" height="30" as="geometry">
            <mxRectangle width="156" height="30" as="alternateBounds" />
          </mxGeometry>
        </mxCell>
        <mxCell id="cykdBwdM0Bds0NIfHY12-34" value="UD_IDS_USR_USERID" style="shape=partialRectangle;html=1;whiteSpace=wrap;connectable=0;strokeColor=inherit;overflow=hidden;fillColor=none;top=0;left=0;bottom=0;right=0;pointerEvents=1;align=left;spacingLeft=3;fontColor=#FFFFFF;" parent="cykdBwdM0Bds0NIfHY12-31" vertex="1">
          <mxGeometry x="180" width="190" height="30" as="geometry">
            <mxRectangle width="190" height="30" as="alternateBounds" />
          </mxGeometry>
        </mxCell>
        <mxCell id="cykdBwdM0Bds0NIfHY12-35" value="String" style="shape=partialRectangle;html=1;whiteSpace=wrap;connectable=0;strokeColor=inherit;overflow=hidden;fillColor=none;top=0;left=0;bottom=0;right=0;pointerEvents=1;align=left;spacingLeft=3;fontColor=#FFFFFF;" parent="cykdBwdM0Bds0NIfHY12-31" vertex="1">
          <mxGeometry x="370" width="45" height="30" as="geometry">
            <mxRectangle width="45" height="30" as="alternateBounds" />
          </mxGeometry>
        </mxCell>
        <mxCell id="cykdBwdM0Bds0NIfHY12-36" value="256" style="shape=partialRectangle;html=1;whiteSpace=wrap;connectable=0;strokeColor=inherit;overflow=hidden;fillColor=none;top=0;left=0;bottom=0;right=0;pointerEvents=1;align=right;spacingLeft=3;fontColor=#FFFFFF;spacingRight=3;" parent="cykdBwdM0Bds0NIfHY12-31" vertex="1">
          <mxGeometry x="415" width="55" height="30" as="geometry">
            <mxRectangle width="55" height="30" as="alternateBounds" />
          </mxGeometry>
        </mxCell>
        <mxCell id="cykdBwdM0Bds0NIfHY12-37" style="shape=tableRow;horizontal=0;startSize=0;swimlaneHead=0;swimlaneBody=0;strokeColor=inherit;top=0;left=0;bottom=0;right=0;collapsible=0;dropTarget=0;fillColor=none;points=[[0,0.5],[1,0.5]];portConstraint=eastwest;fontColor=#FFFFFF;" parent="cykdBwdM0Bds0NIfHY12-13" vertex="1">
          <mxGeometry y="90" width="470" height="30" as="geometry" />
        </mxCell>
        <mxCell id="cykdBwdM0Bds0NIfHY12-38" value="8" style="shape=partialRectangle;html=1;whiteSpace=wrap;connectable=0;strokeColor=inherit;overflow=hidden;fillColor=none;top=0;left=0;bottom=0;right=0;pointerEvents=1;align=right;spacingLeft=3;fontColor=#FFFFFF;" parent="cykdBwdM0Bds0NIfHY12-37" vertex="1">
          <mxGeometry width="24" height="30" as="geometry">
            <mxRectangle width="24" height="30" as="alternateBounds" />
          </mxGeometry>
        </mxCell>
        <mxCell id="cykdBwdM0Bds0NIfHY12-39" value="Password" style="shape=partialRectangle;html=1;whiteSpace=wrap;connectable=0;strokeColor=inherit;overflow=hidden;fillColor=none;top=0;left=0;bottom=0;right=0;pointerEvents=1;align=left;spacingLeft=3;fontColor=#FFFFFF;" parent="cykdBwdM0Bds0NIfHY12-37" vertex="1">
          <mxGeometry x="24" width="156" height="30" as="geometry">
            <mxRectangle width="156" height="30" as="alternateBounds" />
          </mxGeometry>
        </mxCell>
        <mxCell id="cykdBwdM0Bds0NIfHY12-40" value="UD_IDS_USR_PASSWORD" style="shape=partialRectangle;html=1;whiteSpace=wrap;connectable=0;strokeColor=inherit;overflow=hidden;fillColor=none;top=0;left=0;bottom=0;right=0;pointerEvents=1;align=left;spacingLeft=3;fontColor=#FFFFFF;" parent="cykdBwdM0Bds0NIfHY12-37" vertex="1">
          <mxGeometry x="180" width="190" height="30" as="geometry">
            <mxRectangle width="190" height="30" as="alternateBounds" />
          </mxGeometry>
        </mxCell>
        <mxCell id="cykdBwdM0Bds0NIfHY12-41" value="String" style="shape=partialRectangle;html=1;whiteSpace=wrap;connectable=0;strokeColor=inherit;overflow=hidden;fillColor=none;top=0;left=0;bottom=0;right=0;pointerEvents=1;align=left;spacingLeft=3;fontColor=#FFFFFF;" parent="cykdBwdM0Bds0NIfHY12-37" vertex="1">
          <mxGeometry x="370" width="45" height="30" as="geometry">
            <mxRectangle width="45" height="30" as="alternateBounds" />
          </mxGeometry>
        </mxCell>
        <mxCell id="cykdBwdM0Bds0NIfHY12-42" value="200" style="shape=partialRectangle;html=1;whiteSpace=wrap;connectable=0;strokeColor=inherit;overflow=hidden;fillColor=none;top=0;left=0;bottom=0;right=0;pointerEvents=1;align=right;spacingLeft=3;fontColor=#FFFFFF;spacingRight=3;" parent="cykdBwdM0Bds0NIfHY12-37" vertex="1">
          <mxGeometry x="415" width="55" height="30" as="geometry">
            <mxRectangle width="55" height="30" as="alternateBounds" />
          </mxGeometry>
        </mxCell>
        <mxCell id="cykdBwdM0Bds0NIfHY12-43" style="shape=tableRow;horizontal=0;startSize=0;swimlaneHead=0;swimlaneBody=0;strokeColor=inherit;top=0;left=0;bottom=0;right=0;collapsible=0;dropTarget=0;fillColor=none;points=[[0,0.5],[1,0.5]];portConstraint=eastwest;fontColor=#FFFFFF;" parent="cykdBwdM0Bds0NIfHY12-13" vertex="1">
          <mxGeometry y="120" width="470" height="30" as="geometry" />
        </mxCell>
        <mxCell id="cykdBwdM0Bds0NIfHY12-44" value="10" style="shape=partialRectangle;html=1;whiteSpace=wrap;connectable=0;strokeColor=inherit;overflow=hidden;fillColor=none;top=0;left=0;bottom=0;right=0;pointerEvents=1;align=right;spacingLeft=3;fontColor=#FFFFFF;" parent="cykdBwdM0Bds0NIfHY12-43" vertex="1">
          <mxGeometry width="24" height="30" as="geometry">
            <mxRectangle width="24" height="30" as="alternateBounds" />
          </mxGeometry>
        </mxCell>
        <mxCell id="cykdBwdM0Bds0NIfHY12-45" value="Common Name" style="shape=partialRectangle;html=1;whiteSpace=wrap;connectable=0;strokeColor=inherit;overflow=hidden;fillColor=none;top=0;left=0;bottom=0;right=0;pointerEvents=1;align=left;spacingLeft=3;fontColor=#FFFFFF;" parent="cykdBwdM0Bds0NIfHY12-43" vertex="1">
          <mxGeometry x="24" width="156" height="30" as="geometry">
            <mxRectangle width="156" height="30" as="alternateBounds" />
          </mxGeometry>
        </mxCell>
        <mxCell id="cykdBwdM0Bds0NIfHY12-46" value="UD_IDS_USR_COMMON_NAME" style="shape=partialRectangle;html=1;whiteSpace=wrap;connectable=0;strokeColor=inherit;overflow=hidden;fillColor=none;top=0;left=0;bottom=0;right=0;pointerEvents=1;align=left;spacingLeft=3;fontColor=#FFFFFF;" parent="cykdBwdM0Bds0NIfHY12-43" vertex="1">
          <mxGeometry x="180" width="190" height="30" as="geometry">
            <mxRectangle width="190" height="30" as="alternateBounds" />
          </mxGeometry>
        </mxCell>
        <mxCell id="cykdBwdM0Bds0NIfHY12-47" value="String" style="shape=partialRectangle;html=1;whiteSpace=wrap;connectable=0;strokeColor=inherit;overflow=hidden;fillColor=none;top=0;left=0;bottom=0;right=0;pointerEvents=1;align=left;spacingLeft=3;fontColor=#FFFFFF;" parent="cykdBwdM0Bds0NIfHY12-43" vertex="1">
          <mxGeometry x="370" width="45" height="30" as="geometry">
            <mxRectangle width="45" height="30" as="alternateBounds" />
          </mxGeometry>
        </mxCell>
        <mxCell id="cykdBwdM0Bds0NIfHY12-48" value="256" style="shape=partialRectangle;html=1;whiteSpace=wrap;connectable=0;strokeColor=inherit;overflow=hidden;fillColor=none;top=0;left=0;bottom=0;right=0;pointerEvents=1;align=right;spacingLeft=3;fontColor=#FFFFFF;spacingRight=3;" parent="cykdBwdM0Bds0NIfHY12-43" vertex="1">
          <mxGeometry x="415" width="55" height="30" as="geometry">
            <mxRectangle width="55" height="30" as="alternateBounds" />
          </mxGeometry>
        </mxCell>
        <mxCell id="cykdBwdM0Bds0NIfHY12-49" style="shape=tableRow;horizontal=0;startSize=0;swimlaneHead=0;swimlaneBody=0;strokeColor=inherit;top=0;left=0;bottom=0;right=0;collapsible=0;dropTarget=0;fillColor=none;points=[[0,0.5],[1,0.5]];portConstraint=eastwest;fontColor=#FFFFFF;" parent="cykdBwdM0Bds0NIfHY12-13" vertex="1">
          <mxGeometry y="150" width="470" height="30" as="geometry" />
        </mxCell>
        <mxCell id="cykdBwdM0Bds0NIfHY12-50" value="12" style="shape=partialRectangle;html=1;whiteSpace=wrap;connectable=0;strokeColor=inherit;overflow=hidden;fillColor=none;top=0;left=0;bottom=0;right=0;pointerEvents=1;align=right;spacingLeft=3;fontColor=#FFFFFF;" parent="cykdBwdM0Bds0NIfHY12-49" vertex="1">
          <mxGeometry width="24" height="30" as="geometry">
            <mxRectangle width="24" height="30" as="alternateBounds" />
          </mxGeometry>
        </mxCell>
        <mxCell id="cykdBwdM0Bds0NIfHY12-51" value="User Principal Name" style="shape=partialRectangle;html=1;whiteSpace=wrap;connectable=0;strokeColor=inherit;overflow=hidden;fillColor=none;top=0;left=0;bottom=0;right=0;pointerEvents=1;align=left;spacingLeft=3;fontColor=#FFFFFF;" parent="cykdBwdM0Bds0NIfHY12-49" vertex="1">
          <mxGeometry x="24" width="156" height="30" as="geometry">
            <mxRectangle width="156" height="30" as="alternateBounds" />
          </mxGeometry>
        </mxCell>
        <mxCell id="cykdBwdM0Bds0NIfHY12-52" value="UD_IDS_USR_UPN" style="shape=partialRectangle;html=1;whiteSpace=wrap;connectable=0;strokeColor=inherit;overflow=hidden;fillColor=none;top=0;left=0;bottom=0;right=0;pointerEvents=1;align=left;spacingLeft=3;fontColor=#FFFFFF;" parent="cykdBwdM0Bds0NIfHY12-49" vertex="1">
          <mxGeometry x="180" width="190" height="30" as="geometry">
            <mxRectangle width="190" height="30" as="alternateBounds" />
          </mxGeometry>
        </mxCell>
        <mxCell id="cykdBwdM0Bds0NIfHY12-53" value="String" style="shape=partialRectangle;html=1;whiteSpace=wrap;connectable=0;strokeColor=inherit;overflow=hidden;fillColor=none;top=0;left=0;bottom=0;right=0;pointerEvents=1;align=left;spacingLeft=3;fontColor=#FFFFFF;" parent="cykdBwdM0Bds0NIfHY12-49" vertex="1">
          <mxGeometry x="370" width="45" height="30" as="geometry">
            <mxRectangle width="45" height="30" as="alternateBounds" />
          </mxGeometry>
        </mxCell>
        <mxCell id="cykdBwdM0Bds0NIfHY12-54" value="80" style="shape=partialRectangle;html=1;whiteSpace=wrap;connectable=0;strokeColor=inherit;overflow=hidden;fillColor=none;top=0;left=0;bottom=0;right=0;pointerEvents=1;align=right;spacingLeft=3;fontColor=#FFFFFF;spacingRight=3;" parent="cykdBwdM0Bds0NIfHY12-49" vertex="1">
          <mxGeometry x="415" width="55" height="30" as="geometry">
            <mxRectangle width="55" height="30" as="alternateBounds" />
          </mxGeometry>
        </mxCell>
        <mxCell id="cykdBwdM0Bds0NIfHY12-55" style="shape=tableRow;horizontal=0;startSize=0;swimlaneHead=0;swimlaneBody=0;strokeColor=inherit;top=0;left=0;bottom=0;right=0;collapsible=0;dropTarget=0;fillColor=none;points=[[0,0.5],[1,0.5]];portConstraint=eastwest;fontColor=#FFFFFF;" parent="cykdBwdM0Bds0NIfHY12-13" vertex="1">
          <mxGeometry y="180" width="470" height="30" as="geometry" />
        </mxCell>
        <mxCell id="cykdBwdM0Bds0NIfHY12-56" value="14" style="shape=partialRectangle;html=1;whiteSpace=wrap;connectable=0;strokeColor=inherit;overflow=hidden;fillColor=none;top=0;left=0;bottom=0;right=0;pointerEvents=1;align=right;spacingLeft=3;fontColor=#FFFFFF;" parent="cykdBwdM0Bds0NIfHY12-55" vertex="1">
          <mxGeometry width="24" height="30" as="geometry">
            <mxRectangle width="24" height="30" as="alternateBounds" />
          </mxGeometry>
        </mxCell>
        <mxCell id="cykdBwdM0Bds0NIfHY12-57" value="Title" style="shape=partialRectangle;html=1;whiteSpace=wrap;connectable=0;strokeColor=inherit;overflow=hidden;fillColor=none;top=0;left=0;bottom=0;right=0;pointerEvents=1;align=left;spacingLeft=3;fontColor=#FFFFFF;" parent="cykdBwdM0Bds0NIfHY12-55" vertex="1">
          <mxGeometry x="24" width="156" height="30" as="geometry">
            <mxRectangle width="156" height="30" as="alternateBounds" />
          </mxGeometry>
        </mxCell>
        <mxCell id="cykdBwdM0Bds0NIfHY12-58" value="UD_IDS_USR_TITLE" style="shape=partialRectangle;html=1;whiteSpace=wrap;connectable=0;strokeColor=inherit;overflow=hidden;fillColor=none;top=0;left=0;bottom=0;right=0;pointerEvents=1;align=left;spacingLeft=3;fontColor=#FFFFFF;" parent="cykdBwdM0Bds0NIfHY12-55" vertex="1">
          <mxGeometry x="180" width="190" height="30" as="geometry">
            <mxRectangle width="190" height="30" as="alternateBounds" />
          </mxGeometry>
        </mxCell>
        <mxCell id="cykdBwdM0Bds0NIfHY12-59" value="String" style="shape=partialRectangle;html=1;whiteSpace=wrap;connectable=0;strokeColor=inherit;overflow=hidden;fillColor=none;top=0;left=0;bottom=0;right=0;pointerEvents=1;align=left;spacingLeft=3;fontColor=#FFFFFF;" parent="cykdBwdM0Bds0NIfHY12-55" vertex="1">
          <mxGeometry x="370" width="45" height="30" as="geometry">
            <mxRectangle width="45" height="30" as="alternateBounds" />
          </mxGeometry>
        </mxCell>
        <mxCell id="cykdBwdM0Bds0NIfHY12-60" value="30" style="shape=partialRectangle;html=1;whiteSpace=wrap;connectable=0;strokeColor=inherit;overflow=hidden;fillColor=none;top=0;left=0;bottom=0;right=0;pointerEvents=1;align=right;spacingLeft=3;fontColor=#FFFFFF;spacingRight=3;" parent="cykdBwdM0Bds0NIfHY12-55" vertex="1">
          <mxGeometry x="415" width="55" height="30" as="geometry">
            <mxRectangle width="55" height="30" as="alternateBounds" />
          </mxGeometry>
        </mxCell>
        <mxCell id="cykdBwdM0Bds0NIfHY12-61" style="shape=tableRow;horizontal=0;startSize=0;swimlaneHead=0;swimlaneBody=0;strokeColor=inherit;top=0;left=0;bottom=0;right=0;collapsible=0;dropTarget=0;fillColor=none;points=[[0,0.5],[1,0.5]];portConstraint=eastwest;fontColor=#FFFFFF;" parent="cykdBwdM0Bds0NIfHY12-13" vertex="1">
          <mxGeometry y="210" width="470" height="30" as="geometry" />
        </mxCell>
        <mxCell id="cykdBwdM0Bds0NIfHY12-62" value="16" style="shape=partialRectangle;html=1;whiteSpace=wrap;connectable=0;strokeColor=inherit;overflow=hidden;fillColor=none;top=0;left=0;bottom=0;right=0;pointerEvents=1;align=right;spacingLeft=3;fontColor=#FFFFFF;" parent="cykdBwdM0Bds0NIfHY12-61" vertex="1">
          <mxGeometry width="24" height="30" as="geometry">
            <mxRectangle width="24" height="30" as="alternateBounds" />
          </mxGeometry>
        </mxCell>
        <mxCell id="cykdBwdM0Bds0NIfHY12-63" value="Last Name" style="shape=partialRectangle;html=1;whiteSpace=wrap;connectable=0;strokeColor=inherit;overflow=hidden;fillColor=none;top=0;left=0;bottom=0;right=0;pointerEvents=1;align=left;spacingLeft=3;fontColor=#FFFFFF;" parent="cykdBwdM0Bds0NIfHY12-61" vertex="1">
          <mxGeometry x="24" width="156" height="30" as="geometry">
            <mxRectangle width="156" height="30" as="alternateBounds" />
          </mxGeometry>
        </mxCell>
        <mxCell id="cykdBwdM0Bds0NIfHY12-64" value="UD_IDS_USR_LAST_NAME" style="shape=partialRectangle;html=1;whiteSpace=wrap;connectable=0;strokeColor=inherit;overflow=hidden;fillColor=none;top=0;left=0;bottom=0;right=0;pointerEvents=1;align=left;spacingLeft=3;fontColor=#FFFFFF;" parent="cykdBwdM0Bds0NIfHY12-61" vertex="1">
          <mxGeometry x="180" width="190" height="30" as="geometry">
            <mxRectangle width="190" height="30" as="alternateBounds" />
          </mxGeometry>
        </mxCell>
        <mxCell id="cykdBwdM0Bds0NIfHY12-65" value="String" style="shape=partialRectangle;html=1;whiteSpace=wrap;connectable=0;strokeColor=inherit;overflow=hidden;fillColor=none;top=0;left=0;bottom=0;right=0;pointerEvents=1;align=left;spacingLeft=3;fontColor=#FFFFFF;" parent="cykdBwdM0Bds0NIfHY12-61" vertex="1">
          <mxGeometry x="370" width="45" height="30" as="geometry">
            <mxRectangle width="45" height="30" as="alternateBounds" />
          </mxGeometry>
        </mxCell>
        <mxCell id="cykdBwdM0Bds0NIfHY12-66" value="80" style="shape=partialRectangle;html=1;whiteSpace=wrap;connectable=0;strokeColor=inherit;overflow=hidden;fillColor=none;top=0;left=0;bottom=0;right=0;pointerEvents=1;align=right;spacingLeft=3;fontColor=#FFFFFF;spacingRight=3;" parent="cykdBwdM0Bds0NIfHY12-61" vertex="1">
          <mxGeometry x="415" width="55" height="30" as="geometry">
            <mxRectangle width="55" height="30" as="alternateBounds" />
          </mxGeometry>
        </mxCell>
        <mxCell id="cykdBwdM0Bds0NIfHY12-67" style="shape=tableRow;horizontal=0;startSize=0;swimlaneHead=0;swimlaneBody=0;strokeColor=inherit;top=0;left=0;bottom=0;right=0;collapsible=0;dropTarget=0;fillColor=none;points=[[0,0.5],[1,0.5]];portConstraint=eastwest;fontColor=#FFFFFF;" parent="cykdBwdM0Bds0NIfHY12-13" vertex="1">
          <mxGeometry y="240" width="470" height="30" as="geometry" />
        </mxCell>
        <mxCell id="cykdBwdM0Bds0NIfHY12-68" value="18" style="shape=partialRectangle;html=1;whiteSpace=wrap;connectable=0;strokeColor=inherit;overflow=hidden;fillColor=none;top=0;left=0;bottom=0;right=0;pointerEvents=1;align=right;spacingLeft=3;fontColor=#FFFFFF;" parent="cykdBwdM0Bds0NIfHY12-67" vertex="1">
          <mxGeometry width="24" height="30" as="geometry">
            <mxRectangle width="24" height="30" as="alternateBounds" />
          </mxGeometry>
        </mxCell>
        <mxCell id="cykdBwdM0Bds0NIfHY12-69" value="First Name" style="shape=partialRectangle;html=1;whiteSpace=wrap;connectable=0;strokeColor=inherit;overflow=hidden;fillColor=none;top=0;left=0;bottom=0;right=0;pointerEvents=1;align=left;spacingLeft=3;fontColor=#FFFFFF;" parent="cykdBwdM0Bds0NIfHY12-67" vertex="1">
          <mxGeometry x="24" width="156" height="30" as="geometry">
            <mxRectangle width="156" height="30" as="alternateBounds" />
          </mxGeometry>
        </mxCell>
        <mxCell id="cykdBwdM0Bds0NIfHY12-70" value="UD_IDS_USR_FIRST_NAME" style="shape=partialRectangle;html=1;whiteSpace=wrap;connectable=0;strokeColor=inherit;overflow=hidden;fillColor=none;top=0;left=0;bottom=0;right=0;pointerEvents=1;align=left;spacingLeft=3;fontColor=#FFFFFF;" parent="cykdBwdM0Bds0NIfHY12-67" vertex="1">
          <mxGeometry x="180" width="190" height="30" as="geometry">
            <mxRectangle width="190" height="30" as="alternateBounds" />
          </mxGeometry>
        </mxCell>
        <mxCell id="cykdBwdM0Bds0NIfHY12-71" value="String" style="shape=partialRectangle;html=1;whiteSpace=wrap;connectable=0;strokeColor=inherit;overflow=hidden;fillColor=none;top=0;left=0;bottom=0;right=0;pointerEvents=1;align=left;spacingLeft=3;fontColor=#FFFFFF;" parent="cykdBwdM0Bds0NIfHY12-67" vertex="1">
          <mxGeometry x="370" width="45" height="30" as="geometry">
            <mxRectangle width="45" height="30" as="alternateBounds" />
          </mxGeometry>
        </mxCell>
        <mxCell id="cykdBwdM0Bds0NIfHY12-72" value="80" style="shape=partialRectangle;html=1;whiteSpace=wrap;connectable=0;strokeColor=inherit;overflow=hidden;fillColor=none;top=0;left=0;bottom=0;right=0;pointerEvents=1;align=right;spacingLeft=3;fontColor=#FFFFFF;spacingRight=3;" parent="cykdBwdM0Bds0NIfHY12-67" vertex="1">
          <mxGeometry x="415" width="55" height="30" as="geometry">
            <mxRectangle width="55" height="30" as="alternateBounds" />
          </mxGeometry>
        </mxCell>
        <mxCell id="cykdBwdM0Bds0NIfHY12-73" style="shape=tableRow;horizontal=0;startSize=0;swimlaneHead=0;swimlaneBody=0;strokeColor=inherit;top=0;left=0;bottom=0;right=0;collapsible=0;dropTarget=0;fillColor=none;points=[[0,0.5],[1,0.5]];portConstraint=eastwest;fontColor=#FFFFFF;" parent="cykdBwdM0Bds0NIfHY12-13" vertex="1">
          <mxGeometry y="270" width="470" height="30" as="geometry" />
        </mxCell>
        <mxCell id="cykdBwdM0Bds0NIfHY12-74" value="20" style="shape=partialRectangle;html=1;whiteSpace=wrap;connectable=0;strokeColor=inherit;overflow=hidden;fillColor=none;top=0;left=0;bottom=0;right=0;pointerEvents=1;align=right;spacingLeft=3;fontColor=#FFFFFF;" parent="cykdBwdM0Bds0NIfHY12-73" vertex="1">
          <mxGeometry width="24" height="30" as="geometry">
            <mxRectangle width="24" height="30" as="alternateBounds" />
          </mxGeometry>
        </mxCell>
        <mxCell id="cykdBwdM0Bds0NIfHY12-75" value="Middle Name" style="shape=partialRectangle;html=1;whiteSpace=wrap;connectable=0;strokeColor=inherit;overflow=hidden;fillColor=none;top=0;left=0;bottom=0;right=0;pointerEvents=1;align=left;spacingLeft=3;fontColor=#FFFFFF;" parent="cykdBwdM0Bds0NIfHY12-73" vertex="1">
          <mxGeometry x="24" width="156" height="30" as="geometry">
            <mxRectangle width="156" height="30" as="alternateBounds" />
          </mxGeometry>
        </mxCell>
        <mxCell id="cykdBwdM0Bds0NIfHY12-76" value="UD_IDS_USR_MIDDLE_INITIAL" style="shape=partialRectangle;html=1;whiteSpace=wrap;connectable=0;strokeColor=inherit;overflow=hidden;fillColor=none;top=0;left=0;bottom=0;right=0;pointerEvents=1;align=left;spacingLeft=3;fontColor=#FFFFFF;" parent="cykdBwdM0Bds0NIfHY12-73" vertex="1">
          <mxGeometry x="180" width="190" height="30" as="geometry">
            <mxRectangle width="190" height="30" as="alternateBounds" />
          </mxGeometry>
        </mxCell>
        <mxCell id="cykdBwdM0Bds0NIfHY12-77" value="String" style="shape=partialRectangle;html=1;whiteSpace=wrap;connectable=0;strokeColor=inherit;overflow=hidden;fillColor=none;top=0;left=0;bottom=0;right=0;pointerEvents=1;align=left;spacingLeft=3;fontColor=#FFFFFF;" parent="cykdBwdM0Bds0NIfHY12-73" vertex="1">
          <mxGeometry x="370" width="45" height="30" as="geometry">
            <mxRectangle width="45" height="30" as="alternateBounds" />
          </mxGeometry>
        </mxCell>
        <mxCell id="cykdBwdM0Bds0NIfHY12-78" value="80" style="shape=partialRectangle;html=1;whiteSpace=wrap;connectable=0;strokeColor=inherit;overflow=hidden;fillColor=none;top=0;left=0;bottom=0;right=0;pointerEvents=1;align=right;spacingLeft=3;fontColor=#FFFFFF;spacingRight=3;" parent="cykdBwdM0Bds0NIfHY12-73" vertex="1">
          <mxGeometry x="415" width="55" height="30" as="geometry">
            <mxRectangle width="55" height="30" as="alternateBounds" />
          </mxGeometry>
        </mxCell>
        <mxCell id="cykdBwdM0Bds0NIfHY12-79" style="shape=tableRow;horizontal=0;startSize=0;swimlaneHead=0;swimlaneBody=0;strokeColor=inherit;top=0;left=0;bottom=0;right=0;collapsible=0;dropTarget=0;fillColor=none;points=[[0,0.5],[1,0.5]];portConstraint=eastwest;fontColor=#FFFFFF;" parent="cykdBwdM0Bds0NIfHY12-13" vertex="1">
          <mxGeometry y="300" width="470" height="30" as="geometry" />
        </mxCell>
        <mxCell id="cykdBwdM0Bds0NIfHY12-80" value="22" style="shape=partialRectangle;html=1;whiteSpace=wrap;connectable=0;strokeColor=inherit;overflow=hidden;fillColor=none;top=0;left=0;bottom=0;right=0;pointerEvents=1;align=right;spacingLeft=3;fontColor=#FFFFFF;" parent="cykdBwdM0Bds0NIfHY12-79" vertex="1">
          <mxGeometry width="24" height="30" as="geometry">
            <mxRectangle width="24" height="30" as="alternateBounds" />
          </mxGeometry>
        </mxCell>
        <mxCell id="cykdBwdM0Bds0NIfHY12-81" value="Email" style="shape=partialRectangle;html=1;whiteSpace=wrap;connectable=0;strokeColor=inherit;overflow=hidden;fillColor=none;top=0;left=0;bottom=0;right=0;pointerEvents=1;align=left;spacingLeft=3;fontColor=#FFFFFF;" parent="cykdBwdM0Bds0NIfHY12-79" vertex="1">
          <mxGeometry x="24" width="156" height="30" as="geometry">
            <mxRectangle width="156" height="30" as="alternateBounds" />
          </mxGeometry>
        </mxCell>
        <mxCell id="cykdBwdM0Bds0NIfHY12-82" value="UD_IDS_USR_EMAIL" style="shape=partialRectangle;html=1;whiteSpace=wrap;connectable=0;strokeColor=inherit;overflow=hidden;fillColor=none;top=0;left=0;bottom=0;right=0;pointerEvents=1;align=left;spacingLeft=3;fontColor=#FFFFFF;" parent="cykdBwdM0Bds0NIfHY12-79" vertex="1">
          <mxGeometry x="180" width="190" height="30" as="geometry">
            <mxRectangle width="190" height="30" as="alternateBounds" />
          </mxGeometry>
        </mxCell>
        <mxCell id="cykdBwdM0Bds0NIfHY12-83" value="String" style="shape=partialRectangle;html=1;whiteSpace=wrap;connectable=0;strokeColor=inherit;overflow=hidden;fillColor=none;top=0;left=0;bottom=0;right=0;pointerEvents=1;align=left;spacingLeft=3;fontColor=#FFFFFF;" parent="cykdBwdM0Bds0NIfHY12-79" vertex="1">
          <mxGeometry x="370" width="45" height="30" as="geometry">
            <mxRectangle width="45" height="30" as="alternateBounds" />
          </mxGeometry>
        </mxCell>
        <mxCell id="cykdBwdM0Bds0NIfHY12-84" value="245" style="shape=partialRectangle;html=1;whiteSpace=wrap;connectable=0;strokeColor=inherit;overflow=hidden;fillColor=none;top=0;left=0;bottom=0;right=0;pointerEvents=1;align=right;spacingLeft=3;fontColor=#FFFFFF;spacingRight=3;" parent="cykdBwdM0Bds0NIfHY12-79" vertex="1">
          <mxGeometry x="415" width="55" height="30" as="geometry">
            <mxRectangle width="55" height="30" as="alternateBounds" />
          </mxGeometry>
        </mxCell>
        <mxCell id="cykdBwdM0Bds0NIfHY12-85" style="shape=tableRow;horizontal=0;startSize=0;swimlaneHead=0;swimlaneBody=0;strokeColor=inherit;top=0;left=0;bottom=0;right=0;collapsible=0;dropTarget=0;fillColor=none;points=[[0,0.5],[1,0.5]];portConstraint=eastwest;fontColor=#FFFFFF;" parent="cykdBwdM0Bds0NIfHY12-13" vertex="1">
          <mxGeometry y="330" width="470" height="30" as="geometry" />
        </mxCell>
        <mxCell id="cykdBwdM0Bds0NIfHY12-86" value="24" style="shape=partialRectangle;html=1;whiteSpace=wrap;connectable=0;strokeColor=inherit;overflow=hidden;fillColor=none;top=0;left=0;bottom=0;right=0;pointerEvents=1;align=right;spacingLeft=3;fontColor=#FFFFFF;" parent="cykdBwdM0Bds0NIfHY12-85" vertex="1">
          <mxGeometry width="24" height="30" as="geometry">
            <mxRectangle width="24" height="30" as="alternateBounds" />
          </mxGeometry>
        </mxCell>
        <mxCell id="cykdBwdM0Bds0NIfHY12-87" value="Telephone" style="shape=partialRectangle;html=1;whiteSpace=wrap;connectable=0;strokeColor=inherit;overflow=hidden;fillColor=none;top=0;left=0;bottom=0;right=0;pointerEvents=1;align=left;spacingLeft=3;fontColor=#FFFFFF;" parent="cykdBwdM0Bds0NIfHY12-85" vertex="1">
          <mxGeometry x="24" width="156" height="30" as="geometry">
            <mxRectangle width="156" height="30" as="alternateBounds" />
          </mxGeometry>
        </mxCell>
        <mxCell id="cykdBwdM0Bds0NIfHY12-88" value="UD_IDS_USR_TELEPHONE" style="shape=partialRectangle;html=1;whiteSpace=wrap;connectable=0;strokeColor=inherit;overflow=hidden;fillColor=none;top=0;left=0;bottom=0;right=0;pointerEvents=1;align=left;spacingLeft=3;fontColor=#FFFFFF;" parent="cykdBwdM0Bds0NIfHY12-85" vertex="1">
          <mxGeometry x="180" width="190" height="30" as="geometry">
            <mxRectangle width="190" height="30" as="alternateBounds" />
          </mxGeometry>
        </mxCell>
        <mxCell id="cykdBwdM0Bds0NIfHY12-89" value="String" style="shape=partialRectangle;html=1;whiteSpace=wrap;connectable=0;strokeColor=inherit;overflow=hidden;fillColor=none;top=0;left=0;bottom=0;right=0;pointerEvents=1;align=left;spacingLeft=3;fontColor=#FFFFFF;" parent="cykdBwdM0Bds0NIfHY12-85" vertex="1">
          <mxGeometry x="370" width="45" height="30" as="geometry">
            <mxRectangle width="45" height="30" as="alternateBounds" />
          </mxGeometry>
        </mxCell>
        <mxCell id="cykdBwdM0Bds0NIfHY12-90" value="20" style="shape=partialRectangle;html=1;whiteSpace=wrap;connectable=0;strokeColor=inherit;overflow=hidden;fillColor=none;top=0;left=0;bottom=0;right=0;pointerEvents=1;align=right;spacingLeft=3;fontColor=#FFFFFF;spacingRight=3;" parent="cykdBwdM0Bds0NIfHY12-85" vertex="1">
          <mxGeometry x="415" width="55" height="30" as="geometry">
            <mxRectangle width="55" height="30" as="alternateBounds" />
          </mxGeometry>
        </mxCell>
        <mxCell id="cykdBwdM0Bds0NIfHY12-91" style="shape=tableRow;horizontal=0;startSize=0;swimlaneHead=0;swimlaneBody=0;strokeColor=inherit;top=0;left=0;bottom=0;right=0;collapsible=0;dropTarget=0;fillColor=none;points=[[0,0.5],[1,0.5]];portConstraint=eastwest;fontColor=#FFFFFF;" parent="cykdBwdM0Bds0NIfHY12-13" vertex="1">
          <mxGeometry y="360" width="470" height="30" as="geometry" />
        </mxCell>
        <mxCell id="cykdBwdM0Bds0NIfHY12-92" value="26" style="shape=partialRectangle;html=1;whiteSpace=wrap;connectable=0;strokeColor=inherit;overflow=hidden;fillColor=none;top=0;left=0;bottom=0;right=0;pointerEvents=1;align=right;spacingLeft=3;fontColor=#FFFFFF;" parent="cykdBwdM0Bds0NIfHY12-91" vertex="1">
          <mxGeometry width="24" height="30" as="geometry">
            <mxRectangle width="24" height="30" as="alternateBounds" />
          </mxGeometry>
        </mxCell>
        <mxCell id="cykdBwdM0Bds0NIfHY12-93" value="Communication Language" style="shape=partialRectangle;html=1;whiteSpace=wrap;connectable=0;strokeColor=inherit;overflow=hidden;fillColor=none;top=0;left=0;bottom=0;right=0;pointerEvents=1;align=left;spacingLeft=3;fontColor=#FFFFFF;" parent="cykdBwdM0Bds0NIfHY12-91" vertex="1">
          <mxGeometry x="24" width="156" height="30" as="geometry">
            <mxRectangle width="156" height="30" as="alternateBounds" />
          </mxGeometry>
        </mxCell>
        <mxCell id="cykdBwdM0Bds0NIfHY12-94" value="UD_IDS_USR_COMM_LANG" style="shape=partialRectangle;html=1;whiteSpace=wrap;connectable=0;strokeColor=inherit;overflow=hidden;fillColor=none;top=0;left=0;bottom=0;right=0;pointerEvents=1;align=left;spacingLeft=3;fontColor=#FFFFFF;" parent="cykdBwdM0Bds0NIfHY12-91" vertex="1">
          <mxGeometry x="180" width="190" height="30" as="geometry">
            <mxRectangle width="190" height="30" as="alternateBounds" />
          </mxGeometry>
        </mxCell>
        <mxCell id="cykdBwdM0Bds0NIfHY12-95" value="String" style="shape=partialRectangle;html=1;whiteSpace=wrap;connectable=0;strokeColor=inherit;overflow=hidden;fillColor=none;top=0;left=0;bottom=0;right=0;pointerEvents=1;align=left;spacingLeft=3;fontColor=#FFFFFF;" parent="cykdBwdM0Bds0NIfHY12-91" vertex="1">
          <mxGeometry x="370" width="45" height="30" as="geometry">
            <mxRectangle width="45" height="30" as="alternateBounds" />
          </mxGeometry>
        </mxCell>
        <mxCell id="cykdBwdM0Bds0NIfHY12-96" value="50" style="shape=partialRectangle;html=1;whiteSpace=wrap;connectable=0;strokeColor=inherit;overflow=hidden;fillColor=none;top=0;left=0;bottom=0;right=0;pointerEvents=1;align=right;spacingLeft=3;fontColor=#FFFFFF;spacingRight=3;" parent="cykdBwdM0Bds0NIfHY12-91" vertex="1">
          <mxGeometry x="415" width="55" height="30" as="geometry">
            <mxRectangle width="55" height="30" as="alternateBounds" />
          </mxGeometry>
        </mxCell>
        <mxCell id="cykdBwdM0Bds0NIfHY12-97" style="shape=tableRow;horizontal=0;startSize=0;swimlaneHead=0;swimlaneBody=0;strokeColor=inherit;top=0;left=0;bottom=0;right=0;collapsible=0;dropTarget=0;fillColor=none;points=[[0,0.5],[1,0.5]];portConstraint=eastwest;fontColor=#FFFFFF;" parent="cykdBwdM0Bds0NIfHY12-13" vertex="1">
          <mxGeometry y="390" width="470" height="30" as="geometry" />
        </mxCell>
        <mxCell id="cykdBwdM0Bds0NIfHY12-98" value="28" style="shape=partialRectangle;html=1;whiteSpace=wrap;connectable=0;strokeColor=inherit;overflow=hidden;fillColor=none;top=0;left=0;bottom=0;right=0;pointerEvents=1;align=right;spacingLeft=3;fontColor=#FFFFFF;" parent="cykdBwdM0Bds0NIfHY12-97" vertex="1">
          <mxGeometry width="24" height="30" as="geometry">
            <mxRectangle width="24" height="30" as="alternateBounds" />
          </mxGeometry>
        </mxCell>
        <mxCell id="cykdBwdM0Bds0NIfHY12-99" value="Department" style="shape=partialRectangle;html=1;whiteSpace=wrap;connectable=0;strokeColor=inherit;overflow=hidden;fillColor=none;top=0;left=0;bottom=0;right=0;pointerEvents=1;align=left;spacingLeft=3;fontColor=#FFFFFF;" parent="cykdBwdM0Bds0NIfHY12-97" vertex="1">
          <mxGeometry x="24" width="156" height="30" as="geometry">
            <mxRectangle width="156" height="30" as="alternateBounds" />
          </mxGeometry>
        </mxCell>
        <mxCell id="cykdBwdM0Bds0NIfHY12-100" value="UD_IDS_USR_DEPARTMENT" style="shape=partialRectangle;html=1;whiteSpace=wrap;connectable=0;strokeColor=inherit;overflow=hidden;fillColor=none;top=0;left=0;bottom=0;right=0;pointerEvents=1;align=left;spacingLeft=3;fontColor=#FFFFFF;" parent="cykdBwdM0Bds0NIfHY12-97" vertex="1">
          <mxGeometry x="180" width="190" height="30" as="geometry">
            <mxRectangle width="190" height="30" as="alternateBounds" />
          </mxGeometry>
        </mxCell>
        <mxCell id="cykdBwdM0Bds0NIfHY12-101" value="String" style="shape=partialRectangle;html=1;whiteSpace=wrap;connectable=0;strokeColor=inherit;overflow=hidden;fillColor=none;top=0;left=0;bottom=0;right=0;pointerEvents=1;align=left;spacingLeft=3;fontColor=#FFFFFF;" parent="cykdBwdM0Bds0NIfHY12-97" vertex="1">
          <mxGeometry x="370" width="45" height="30" as="geometry">
            <mxRectangle width="45" height="30" as="alternateBounds" />
          </mxGeometry>
        </mxCell>
        <mxCell id="cykdBwdM0Bds0NIfHY12-102" value="100" style="shape=partialRectangle;html=1;whiteSpace=wrap;connectable=0;strokeColor=inherit;overflow=hidden;fillColor=none;top=0;left=0;bottom=0;right=0;pointerEvents=1;align=right;spacingLeft=3;fontColor=#FFFFFF;spacingRight=3;" parent="cykdBwdM0Bds0NIfHY12-97" vertex="1">
          <mxGeometry x="415" width="55" height="30" as="geometry">
            <mxRectangle width="55" height="30" as="alternateBounds" />
          </mxGeometry>
        </mxCell>
        <mxCell id="cykdBwdM0Bds0NIfHY12-103" style="shape=tableRow;horizontal=0;startSize=0;swimlaneHead=0;swimlaneBody=0;strokeColor=inherit;top=0;left=0;bottom=0;right=0;collapsible=0;dropTarget=0;fillColor=none;points=[[0,0.5],[1,0.5]];portConstraint=eastwest;fontColor=#FFFFFF;" parent="cykdBwdM0Bds0NIfHY12-13" vertex="1">
          <mxGeometry y="420" width="470" height="30" as="geometry" />
        </mxCell>
        <mxCell id="cykdBwdM0Bds0NIfHY12-104" value="30" style="shape=partialRectangle;html=1;whiteSpace=wrap;connectable=0;strokeColor=inherit;overflow=hidden;fillColor=none;top=0;left=0;bottom=0;right=0;pointerEvents=1;align=right;spacingLeft=3;fontColor=#FFFFFF;" parent="cykdBwdM0Bds0NIfHY12-103" vertex="1">
          <mxGeometry width="24" height="30" as="geometry">
            <mxRectangle width="24" height="30" as="alternateBounds" />
          </mxGeometry>
        </mxCell>
        <mxCell id="cykdBwdM0Bds0NIfHY12-105" value="Location" style="shape=partialRectangle;html=1;whiteSpace=wrap;connectable=0;strokeColor=inherit;overflow=hidden;fillColor=none;top=0;left=0;bottom=0;right=0;pointerEvents=1;align=left;spacingLeft=3;fontColor=#FFFFFF;" parent="cykdBwdM0Bds0NIfHY12-103" vertex="1">
          <mxGeometry x="24" width="156" height="30" as="geometry">
            <mxRectangle width="156" height="30" as="alternateBounds" />
          </mxGeometry>
        </mxCell>
        <mxCell id="cykdBwdM0Bds0NIfHY12-106" value="UD_IDS_USR_LOCATION" style="shape=partialRectangle;html=1;whiteSpace=wrap;connectable=0;strokeColor=inherit;overflow=hidden;fillColor=none;top=0;left=0;bottom=0;right=0;pointerEvents=1;align=left;spacingLeft=3;fontColor=#FFFFFF;" parent="cykdBwdM0Bds0NIfHY12-103" vertex="1">
          <mxGeometry x="180" width="190" height="30" as="geometry">
            <mxRectangle width="190" height="30" as="alternateBounds" />
          </mxGeometry>
        </mxCell>
        <mxCell id="cykdBwdM0Bds0NIfHY12-107" value="String" style="shape=partialRectangle;html=1;whiteSpace=wrap;connectable=0;strokeColor=inherit;overflow=hidden;fillColor=none;top=0;left=0;bottom=0;right=0;pointerEvents=1;align=left;spacingLeft=3;fontColor=#FFFFFF;" parent="cykdBwdM0Bds0NIfHY12-103" vertex="1">
          <mxGeometry x="370" width="45" height="30" as="geometry">
            <mxRectangle width="45" height="30" as="alternateBounds" />
          </mxGeometry>
        </mxCell>
        <mxCell id="cykdBwdM0Bds0NIfHY12-108" value="100" style="shape=partialRectangle;html=1;whiteSpace=wrap;connectable=0;strokeColor=inherit;overflow=hidden;fillColor=none;top=0;left=0;bottom=0;right=0;pointerEvents=1;align=right;spacingLeft=3;fontColor=#FFFFFF;spacingRight=3;" parent="cykdBwdM0Bds0NIfHY12-103" vertex="1">
          <mxGeometry x="415" width="55" height="30" as="geometry">
            <mxRectangle width="55" height="30" as="alternateBounds" />
          </mxGeometry>
        </mxCell>
        <mxCell id="cykdBwdM0Bds0NIfHY12-109" style="shape=tableRow;horizontal=0;startSize=0;swimlaneHead=0;swimlaneBody=0;strokeColor=inherit;top=0;left=0;bottom=0;right=0;collapsible=0;dropTarget=0;fillColor=none;points=[[0,0.5],[1,0.5]];portConstraint=eastwest;fontColor=#FFFFFF;" parent="cykdBwdM0Bds0NIfHY12-13" vertex="1">
          <mxGeometry y="450" width="470" height="30" as="geometry" />
        </mxCell>
        <mxCell id="cykdBwdM0Bds0NIfHY12-110" value="32" style="shape=partialRectangle;html=1;whiteSpace=wrap;connectable=0;strokeColor=inherit;overflow=hidden;fillColor=none;top=0;left=0;bottom=0;right=0;pointerEvents=1;align=right;spacingLeft=3;fontColor=#FFFFFF;" parent="cykdBwdM0Bds0NIfHY12-109" vertex="1">
          <mxGeometry width="24" height="30" as="geometry">
            <mxRectangle width="24" height="30" as="alternateBounds" />
          </mxGeometry>
        </mxCell>
        <mxCell id="cykdBwdM0Bds0NIfHY12-111" value="NsuniqueID" style="shape=partialRectangle;html=1;whiteSpace=wrap;connectable=0;strokeColor=inherit;overflow=hidden;fillColor=none;top=0;left=0;bottom=0;right=0;pointerEvents=1;align=left;spacingLeft=3;fontColor=#FFFFFF;" parent="cykdBwdM0Bds0NIfHY12-109" vertex="1">
          <mxGeometry x="24" width="156" height="30" as="geometry">
            <mxRectangle width="156" height="30" as="alternateBounds" />
          </mxGeometry>
        </mxCell>
        <mxCell id="cykdBwdM0Bds0NIfHY12-112" value="UD_IDS_USR_NSUNIQUEID" style="shape=partialRectangle;html=1;whiteSpace=wrap;connectable=0;strokeColor=inherit;overflow=hidden;fillColor=none;top=0;left=0;bottom=0;right=0;pointerEvents=1;align=left;spacingLeft=3;fontColor=#FFFFFF;" parent="cykdBwdM0Bds0NIfHY12-109" vertex="1">
          <mxGeometry x="180" width="190" height="30" as="geometry">
            <mxRectangle width="190" height="30" as="alternateBounds" />
          </mxGeometry>
        </mxCell>
        <mxCell id="cykdBwdM0Bds0NIfHY12-113" value="String" style="shape=partialRectangle;html=1;whiteSpace=wrap;connectable=0;strokeColor=inherit;overflow=hidden;fillColor=none;top=0;left=0;bottom=0;right=0;pointerEvents=1;align=left;spacingLeft=3;fontColor=#FFFFFF;" parent="cykdBwdM0Bds0NIfHY12-109" vertex="1">
          <mxGeometry x="370" width="45" height="30" as="geometry">
            <mxRectangle width="45" height="30" as="alternateBounds" />
          </mxGeometry>
        </mxCell>
        <mxCell id="cykdBwdM0Bds0NIfHY12-114" value="100" style="shape=partialRectangle;html=1;whiteSpace=wrap;connectable=0;strokeColor=inherit;overflow=hidden;fillColor=none;top=0;left=0;bottom=0;right=0;pointerEvents=1;align=right;spacingLeft=3;fontColor=#FFFFFF;spacingRight=3;" parent="cykdBwdM0Bds0NIfHY12-109" vertex="1">
          <mxGeometry x="415" width="55" height="30" as="geometry">
            <mxRectangle width="55" height="30" as="alternateBounds" />
          </mxGeometry>
        </mxCell>
        <mxCell id="cykdBwdM0Bds0NIfHY12-139" style="shape=tableRow;horizontal=0;startSize=0;swimlaneHead=0;swimlaneBody=0;strokeColor=inherit;top=0;left=0;bottom=0;right=0;collapsible=0;dropTarget=0;fillColor=none;points=[[0,0.5],[1,0.5]];portConstraint=eastwest;fontColor=#FFFFFF;" parent="cykdBwdM0Bds0NIfHY12-13" vertex="1">
          <mxGeometry y="480" width="470" height="30" as="geometry" />
        </mxCell>
        <mxCell id="cykdBwdM0Bds0NIfHY12-140" value="34" style="shape=partialRectangle;html=1;whiteSpace=wrap;connectable=0;strokeColor=inherit;overflow=hidden;fillColor=none;top=0;left=0;bottom=0;right=0;pointerEvents=1;align=right;spacingLeft=3;fontColor=#FFFFFF;" parent="cykdBwdM0Bds0NIfHY12-139" vertex="1">
          <mxGeometry width="24" height="30" as="geometry">
            <mxRectangle width="24" height="30" as="alternateBounds" />
          </mxGeometry>
        </mxCell>
        <mxCell id="cykdBwdM0Bds0NIfHY12-141" value="Participant" style="shape=partialRectangle;html=1;whiteSpace=wrap;connectable=0;strokeColor=inherit;overflow=hidden;fillColor=none;top=0;left=0;bottom=0;right=0;pointerEvents=1;align=left;spacingLeft=3;fontColor=#FFFFFF;" parent="cykdBwdM0Bds0NIfHY12-139" vertex="1">
          <mxGeometry x="24" width="156" height="30" as="geometry">
            <mxRectangle width="156" height="30" as="alternateBounds" />
          </mxGeometry>
        </mxCell>
        <mxCell id="cykdBwdM0Bds0NIfHY12-142" value="UD_IDS_USR_PTS" style="shape=partialRectangle;html=1;whiteSpace=wrap;connectable=0;strokeColor=inherit;overflow=hidden;fillColor=none;top=0;left=0;bottom=0;right=0;pointerEvents=1;align=left;spacingLeft=3;fontColor=#FFFFFF;" parent="cykdBwdM0Bds0NIfHY12-139" vertex="1">
          <mxGeometry x="180" width="190" height="30" as="geometry">
            <mxRectangle width="190" height="30" as="alternateBounds" />
          </mxGeometry>
        </mxCell>
        <mxCell id="cykdBwdM0Bds0NIfHY12-143" value="String" style="shape=partialRectangle;html=1;whiteSpace=wrap;connectable=0;strokeColor=inherit;overflow=hidden;fillColor=none;top=0;left=0;bottom=0;right=0;pointerEvents=1;align=left;spacingLeft=3;fontColor=#FFFFFF;" parent="cykdBwdM0Bds0NIfHY12-139" vertex="1">
          <mxGeometry x="370" width="45" height="30" as="geometry">
            <mxRectangle width="45" height="30" as="alternateBounds" />
          </mxGeometry>
        </mxCell>
        <mxCell id="cykdBwdM0Bds0NIfHY12-144" value="64" style="shape=partialRectangle;html=1;whiteSpace=wrap;connectable=0;strokeColor=inherit;overflow=hidden;fillColor=none;top=0;left=0;bottom=0;right=0;pointerEvents=1;align=right;spacingLeft=3;fontColor=#FFFFFF;spacingRight=3;" parent="cykdBwdM0Bds0NIfHY12-139" vertex="1">
          <mxGeometry x="415" width="55" height="30" as="geometry">
            <mxRectangle width="55" height="30" as="alternateBounds" />
          </mxGeometry>
        </mxCell>
        <mxCell id="cykdBwdM0Bds0NIfHY12-181" style="shape=tableRow;horizontal=0;startSize=0;swimlaneHead=0;swimlaneBody=0;strokeColor=inherit;top=0;left=0;bottom=0;right=0;collapsible=0;dropTarget=0;fillColor=none;points=[[0,0.5],[1,0.5]];portConstraint=eastwest;fontColor=#FFFFFF;" parent="cykdBwdM0Bds0NIfHY12-13" vertex="1">
          <mxGeometry y="510" width="470" height="30" as="geometry" />
        </mxCell>
        <mxCell id="cykdBwdM0Bds0NIfHY12-182" value="36" style="shape=partialRectangle;html=1;whiteSpace=wrap;connectable=0;strokeColor=inherit;overflow=hidden;fillColor=none;top=0;left=0;bottom=0;right=0;pointerEvents=1;align=right;spacingLeft=3;fontColor=#FFFFFF;" parent="cykdBwdM0Bds0NIfHY12-181" vertex="1">
          <mxGeometry width="24" height="30" as="geometry">
            <mxRectangle width="24" height="30" as="alternateBounds" />
          </mxGeometry>
        </mxCell>
        <mxCell id="cykdBwdM0Bds0NIfHY12-183" value="Organizational Unit" style="shape=partialRectangle;html=1;whiteSpace=wrap;connectable=0;strokeColor=inherit;overflow=hidden;fillColor=none;top=0;left=0;bottom=0;right=0;pointerEvents=1;align=left;spacingLeft=3;fontColor=#FFFFFF;" parent="cykdBwdM0Bds0NIfHY12-181" vertex="1">
          <mxGeometry x="24" width="156" height="30" as="geometry">
            <mxRectangle width="156" height="30" as="alternateBounds" />
          </mxGeometry>
        </mxCell>
        <mxCell id="cykdBwdM0Bds0NIfHY12-184" value="UD_IDS_USR_OU" style="shape=partialRectangle;html=1;whiteSpace=wrap;connectable=0;strokeColor=inherit;overflow=hidden;fillColor=none;top=0;left=0;bottom=0;right=0;pointerEvents=1;align=left;spacingLeft=3;fontColor=#FFFFFF;" parent="cykdBwdM0Bds0NIfHY12-181" vertex="1">
          <mxGeometry x="180" width="190" height="30" as="geometry">
            <mxRectangle width="190" height="30" as="alternateBounds" />
          </mxGeometry>
        </mxCell>
        <mxCell id="cykdBwdM0Bds0NIfHY12-185" value="String" style="shape=partialRectangle;html=1;whiteSpace=wrap;connectable=0;strokeColor=inherit;overflow=hidden;fillColor=none;top=0;left=0;bottom=0;right=0;pointerEvents=1;align=left;spacingLeft=3;fontColor=#FFFFFF;" parent="cykdBwdM0Bds0NIfHY12-181" vertex="1">
          <mxGeometry x="370" width="45" height="30" as="geometry">
            <mxRectangle width="45" height="30" as="alternateBounds" />
          </mxGeometry>
        </mxCell>
        <mxCell id="cykdBwdM0Bds0NIfHY12-186" value="256" style="shape=partialRectangle;html=1;whiteSpace=wrap;connectable=0;strokeColor=inherit;overflow=hidden;fillColor=none;top=0;left=0;bottom=0;right=0;pointerEvents=1;align=right;spacingLeft=3;fontColor=#FFFFFF;spacingRight=3;" parent="cykdBwdM0Bds0NIfHY12-181" vertex="1">
          <mxGeometry x="415" width="55" height="30" as="geometry">
            <mxRectangle width="55" height="30" as="alternateBounds" />
          </mxGeometry>
        </mxCell>
        <mxCell id="cykdBwdM0Bds0NIfHY12-187" style="shape=tableRow;horizontal=0;startSize=0;swimlaneHead=0;swimlaneBody=0;strokeColor=inherit;top=0;left=0;bottom=0;right=0;collapsible=0;dropTarget=0;fillColor=none;points=[[0,0.5],[1,0.5]];portConstraint=eastwest;fontColor=#FFFFFF;" parent="cykdBwdM0Bds0NIfHY12-13" vertex="1">
          <mxGeometry y="540" width="470" height="30" as="geometry" />
        </mxCell>
        <mxCell id="cykdBwdM0Bds0NIfHY12-188" value="38" style="shape=partialRectangle;html=1;whiteSpace=wrap;connectable=0;strokeColor=inherit;overflow=hidden;fillColor=none;top=0;left=0;bottom=0;right=0;pointerEvents=1;align=right;spacingLeft=3;fontColor=#FFFFFF;" parent="cykdBwdM0Bds0NIfHY12-187" vertex="1">
          <mxGeometry width="24" height="30" as="geometry">
            <mxRectangle width="24" height="30" as="alternateBounds" />
          </mxGeometry>
        </mxCell>
        <mxCell id="cykdBwdM0Bds0NIfHY12-189" value="Division" style="shape=partialRectangle;html=1;whiteSpace=wrap;connectable=0;strokeColor=inherit;overflow=hidden;fillColor=none;top=0;left=0;bottom=0;right=0;pointerEvents=1;align=left;spacingLeft=3;fontColor=#FFFFFF;" parent="cykdBwdM0Bds0NIfHY12-187" vertex="1">
          <mxGeometry x="24" width="156" height="30" as="geometry">
            <mxRectangle width="156" height="30" as="alternateBounds" />
          </mxGeometry>
        </mxCell>
        <mxCell id="cykdBwdM0Bds0NIfHY12-190" value="UD_IDS_USR_DIVISION" style="shape=partialRectangle;html=1;whiteSpace=wrap;connectable=0;strokeColor=inherit;overflow=hidden;fillColor=none;top=0;left=0;bottom=0;right=0;pointerEvents=1;align=left;spacingLeft=3;fontColor=#FFFFFF;" parent="cykdBwdM0Bds0NIfHY12-187" vertex="1">
          <mxGeometry x="180" width="190" height="30" as="geometry">
            <mxRectangle width="190" height="30" as="alternateBounds" />
          </mxGeometry>
        </mxCell>
        <mxCell id="cykdBwdM0Bds0NIfHY12-191" value="String" style="shape=partialRectangle;html=1;whiteSpace=wrap;connectable=0;strokeColor=inherit;overflow=hidden;fillColor=none;top=0;left=0;bottom=0;right=0;pointerEvents=1;align=left;spacingLeft=3;fontColor=#FFFFFF;" parent="cykdBwdM0Bds0NIfHY12-187" vertex="1">
          <mxGeometry x="370" width="45" height="30" as="geometry">
            <mxRectangle width="45" height="30" as="alternateBounds" />
          </mxGeometry>
        </mxCell>
        <mxCell id="cykdBwdM0Bds0NIfHY12-192" value="1024" style="shape=partialRectangle;html=1;whiteSpace=wrap;connectable=0;strokeColor=inherit;overflow=hidden;fillColor=none;top=0;left=0;bottom=0;right=0;pointerEvents=1;align=right;spacingLeft=3;fontColor=#FFFFFF;spacingRight=3;" parent="cykdBwdM0Bds0NIfHY12-187" vertex="1">
          <mxGeometry x="415" width="55" height="30" as="geometry">
            <mxRectangle width="55" height="30" as="alternateBounds" />
          </mxGeometry>
        </mxCell>
        <mxCell id="cykdBwdM0Bds0NIfHY12-151" style="shape=tableRow;horizontal=0;startSize=0;swimlaneHead=0;swimlaneBody=0;strokeColor=inherit;top=0;left=0;bottom=0;right=0;collapsible=0;dropTarget=0;fillColor=none;points=[[0,0.5],[1,0.5]];portConstraint=eastwest;fontColor=#FFFFFF;" parent="cykdBwdM0Bds0NIfHY12-13" vertex="1">
          <mxGeometry y="570" width="470" height="30" as="geometry" />
        </mxCell>
        <mxCell id="cykdBwdM0Bds0NIfHY12-152" value="40" style="shape=partialRectangle;html=1;whiteSpace=wrap;connectable=0;strokeColor=inherit;overflow=hidden;fillColor=none;top=0;left=0;bottom=0;right=0;pointerEvents=1;align=right;spacingLeft=3;fontColor=#FFFFFF;" parent="cykdBwdM0Bds0NIfHY12-151" vertex="1">
          <mxGeometry width="24" height="30" as="geometry">
            <mxRectangle width="24" height="30" as="alternateBounds" />
          </mxGeometry>
        </mxCell>
        <mxCell id="cykdBwdM0Bds0NIfHY12-153" value="Unique Identifier" style="shape=partialRectangle;html=1;whiteSpace=wrap;connectable=0;strokeColor=inherit;overflow=hidden;fillColor=none;top=0;left=0;bottom=0;right=0;pointerEvents=1;align=left;spacingLeft=3;fontColor=#FFFFFF;" parent="cykdBwdM0Bds0NIfHY12-151" vertex="1">
          <mxGeometry x="24" width="156" height="30" as="geometry">
            <mxRectangle width="156" height="30" as="alternateBounds" />
          </mxGeometry>
        </mxCell>
        <mxCell id="cykdBwdM0Bds0NIfHY12-154" value="UD_IDS_USR_UID" style="shape=partialRectangle;html=1;whiteSpace=wrap;connectable=0;strokeColor=inherit;overflow=hidden;fillColor=none;top=0;left=0;bottom=0;right=0;pointerEvents=1;align=left;spacingLeft=3;fontColor=#FFFFFF;" parent="cykdBwdM0Bds0NIfHY12-151" vertex="1">
          <mxGeometry x="180" width="190" height="30" as="geometry">
            <mxRectangle width="190" height="30" as="alternateBounds" />
          </mxGeometry>
        </mxCell>
        <mxCell id="cykdBwdM0Bds0NIfHY12-155" value="String" style="shape=partialRectangle;html=1;whiteSpace=wrap;connectable=0;strokeColor=inherit;overflow=hidden;fillColor=none;top=0;left=0;bottom=0;right=0;pointerEvents=1;align=left;spacingLeft=3;fontColor=#FFFFFF;" parent="cykdBwdM0Bds0NIfHY12-151" vertex="1">
          <mxGeometry x="370" width="45" height="30" as="geometry">
            <mxRectangle width="45" height="30" as="alternateBounds" />
          </mxGeometry>
        </mxCell>
        <mxCell id="cykdBwdM0Bds0NIfHY12-156" value="64" style="shape=partialRectangle;html=1;whiteSpace=wrap;connectable=0;strokeColor=inherit;overflow=hidden;fillColor=none;top=0;left=0;bottom=0;right=0;pointerEvents=1;align=right;spacingLeft=3;fontColor=#FFFFFF;spacingRight=3;" parent="cykdBwdM0Bds0NIfHY12-151" vertex="1">
          <mxGeometry x="415" width="55" height="30" as="geometry">
            <mxRectangle width="55" height="30" as="alternateBounds" />
          </mxGeometry>
        </mxCell>
        <mxCell id="cykdBwdM0Bds0NIfHY12-145" style="shape=tableRow;horizontal=0;startSize=0;swimlaneHead=0;swimlaneBody=0;strokeColor=inherit;top=0;left=0;bottom=0;right=0;collapsible=0;dropTarget=0;fillColor=none;points=[[0,0.5],[1,0.5]];portConstraint=eastwest;fontColor=#FFFFFF;" parent="cykdBwdM0Bds0NIfHY12-13" vertex="1">
          <mxGeometry y="600" width="470" height="30" as="geometry" />
        </mxCell>
        <mxCell id="cykdBwdM0Bds0NIfHY12-146" value="42" style="shape=partialRectangle;html=1;whiteSpace=wrap;connectable=0;strokeColor=inherit;overflow=hidden;fillColor=none;top=0;left=0;bottom=0;right=0;pointerEvents=1;align=right;spacingLeft=3;fontColor=#FFFFFF;" parent="cykdBwdM0Bds0NIfHY12-145" vertex="1">
          <mxGeometry width="24" height="30" as="geometry">
            <mxRectangle width="24" height="30" as="alternateBounds" />
          </mxGeometry>
        </mxCell>
        <mxCell id="cykdBwdM0Bds0NIfHY12-147" value="Anonymous Identifier" style="shape=partialRectangle;html=1;whiteSpace=wrap;connectable=0;strokeColor=inherit;overflow=hidden;fillColor=none;top=0;left=0;bottom=0;right=0;pointerEvents=1;align=left;spacingLeft=3;fontColor=#FFFFFF;" parent="cykdBwdM0Bds0NIfHY12-145" vertex="1">
          <mxGeometry x="24" width="156" height="30" as="geometry">
            <mxRectangle width="156" height="30" as="alternateBounds" />
          </mxGeometry>
        </mxCell>
        <mxCell id="cykdBwdM0Bds0NIfHY12-148" value="UD_IDS_USR_PID" style="shape=partialRectangle;html=1;whiteSpace=wrap;connectable=0;strokeColor=inherit;overflow=hidden;fillColor=none;top=0;left=0;bottom=0;right=0;pointerEvents=1;align=left;spacingLeft=3;fontColor=#FFFFFF;" parent="cykdBwdM0Bds0NIfHY12-145" vertex="1">
          <mxGeometry x="180" width="190" height="30" as="geometry">
            <mxRectangle width="190" height="30" as="alternateBounds" />
          </mxGeometry>
        </mxCell>
        <mxCell id="cykdBwdM0Bds0NIfHY12-149" value="String" style="shape=partialRectangle;html=1;whiteSpace=wrap;connectable=0;strokeColor=inherit;overflow=hidden;fillColor=none;top=0;left=0;bottom=0;right=0;pointerEvents=1;align=left;spacingLeft=3;fontColor=#FFFFFF;" parent="cykdBwdM0Bds0NIfHY12-145" vertex="1">
          <mxGeometry x="370" width="45" height="30" as="geometry">
            <mxRectangle width="45" height="30" as="alternateBounds" />
          </mxGeometry>
        </mxCell>
        <mxCell id="cykdBwdM0Bds0NIfHY12-150" value="64" style="shape=partialRectangle;html=1;whiteSpace=wrap;connectable=0;strokeColor=inherit;overflow=hidden;fillColor=none;top=0;left=0;bottom=0;right=0;pointerEvents=1;align=right;spacingLeft=3;fontColor=#FFFFFF;spacingRight=3;" parent="cykdBwdM0Bds0NIfHY12-145" vertex="1">
          <mxGeometry x="415" width="55" height="30" as="geometry">
            <mxRectangle width="55" height="30" as="alternateBounds" />
          </mxGeometry>
        </mxCell>
        <mxCell id="cykdBwdM0Bds0NIfHY12-118" value="" style="endArrow=oval;html=1;rounded=0;exitX=1;exitY=0.5;exitDx=0;exitDy=0;entryX=0;entryY=0.5;entryDx=0;entryDy=0;startArrow=oval;startFill=1;endFill=1;strokeColor=#7030A0;" parent="1" source="cykdBwdM0Bds0NIfHY12-7" target="cykdBwdM0Bds0NIfHY12-37" edge="1">
          <mxGeometry width="50" height="50" relative="1" as="geometry">
            <mxPoint x="407" y="589" as="sourcePoint" />
            <mxPoint x="457" y="539" as="targetPoint" />
          </mxGeometry>
        </mxCell>
        <mxCell id="cykdBwdM0Bds0NIfHY12-120" value="" style="endArrow=oval;html=1;rounded=0;exitX=1;exitY=0.5;exitDx=0;exitDy=0;entryX=0;entryY=0.5;entryDx=0;entryDy=0;startArrow=oval;startFill=1;endFill=1;strokeColor=#7030A0;" parent="1" source="cykdBwdM0Bds0NIfHY12-8" target="cykdBwdM0Bds0NIfHY12-61" edge="1">
          <mxGeometry width="50" height="50" relative="1" as="geometry">
            <mxPoint x="205" y="161" as="sourcePoint" />
            <mxPoint x="307" y="161" as="targetPoint" />
          </mxGeometry>
        </mxCell>
        <mxCell id="cykdBwdM0Bds0NIfHY12-121" value="" style="endArrow=oval;html=1;rounded=0;exitX=1;exitY=0.5;exitDx=0;exitDy=0;entryX=0;entryY=0.5;entryDx=0;entryDy=0;startArrow=oval;startFill=1;endFill=1;strokeColor=#7030A0;" parent="1" source="cykdBwdM0Bds0NIfHY12-9" target="cykdBwdM0Bds0NIfHY12-67" edge="1">
          <mxGeometry width="50" height="50" relative="1" as="geometry">
            <mxPoint x="215" y="171" as="sourcePoint" />
            <mxPoint x="317" y="171" as="targetPoint" />
          </mxGeometry>
        </mxCell>
        <mxCell id="cykdBwdM0Bds0NIfHY12-122" value="Organization" style="rounded=0;whiteSpace=wrap;html=1;strokeColor=#FFFFFF;fillColor=#7030A0;fontColor=#FFFFFF;align=left;spacingLeft=3;" parent="1" vertex="1">
          <mxGeometry x="14.873999999999999" y="76.08999999999997" width="180" height="30" as="geometry" />
        </mxCell>
        <mxCell id="cykdBwdM0Bds0NIfHY12-123" value="" style="endArrow=oval;html=1;rounded=0;exitX=1;exitY=0.5;exitDx=0;exitDy=0;entryX=0;entryY=0.5;entryDx=0;entryDy=0;startArrow=oval;startFill=1;endFill=1;strokeColor=#7030A0;fontColor=#7030A0;labelBorderColor=#7030A0;spacingBottom=3;labelBackgroundColor=none;fontSize=17;" parent="1" source="cykdBwdM0Bds0NIfHY12-122" target="cykdBwdM0Bds0NIfHY12-24" edge="1">
          <mxGeometry width="50" height="50" relative="1" as="geometry">
            <mxPoint x="205" y="161" as="sourcePoint" />
            <mxPoint x="307" y="161" as="targetPoint" />
          </mxGeometry>
        </mxCell>
        <mxCell id="cykdBwdM0Bds0NIfHY12-124" value="&amp;nbsp;T&amp;nbsp;" style="edgeLabel;html=1;align=center;verticalAlign=middle;resizable=0;points=[];fontSize=15;fontColor=#FFFFFF;labelBorderColor=#7030A0;labelBackgroundColor=#7030A0;spacingBottom=5;spacingLeft=3;spacingRight=3;" parent="cykdBwdM0Bds0NIfHY12-123" vertex="1" connectable="0">
          <mxGeometry x="0.0012" y="-2" relative="1" as="geometry">
            <mxPoint as="offset" />
          </mxGeometry>
        </mxCell>
        <mxCell id="cykdBwdM0Bds0NIfHY12-127" value="Common Name" style="rounded=0;whiteSpace=wrap;html=1;strokeColor=#FFFFFF;fillColor=#7030A0;fontColor=#FFFFFF;align=left;spacingLeft=3;" parent="1" vertex="1">
          <mxGeometry x="14.873999999999999" y="166.08999999999997" width="180" height="30" as="geometry" />
        </mxCell>
        <mxCell id="cykdBwdM0Bds0NIfHY12-128" value="" style="endArrow=oval;html=1;rounded=0;exitX=1;exitY=0.5;exitDx=0;exitDy=0;entryX=0;entryY=0.5;entryDx=0;entryDy=0;startArrow=oval;startFill=1;endFill=1;strokeColor=#7030A0;" parent="1" source="cykdBwdM0Bds0NIfHY12-127" target="cykdBwdM0Bds0NIfHY12-43" edge="1">
          <mxGeometry width="50" height="50" relative="1" as="geometry">
            <mxPoint x="205" y="281" as="sourcePoint" />
            <mxPoint x="307" y="281" as="targetPoint" />
          </mxGeometry>
        </mxCell>
        <mxCell id="cykdBwdM0Bds0NIfHY12-129" value="Generation Qualifier" style="rounded=0;whiteSpace=wrap;html=1;strokeColor=#FFFFFF;fillColor=#7030A0;fontColor=#FFFFFF;align=left;spacingLeft=3;" parent="1" vertex="1">
          <mxGeometry x="14.873999999999999" y="196.08999999999997" width="180" height="30" as="geometry" />
        </mxCell>
        <mxCell id="cykdBwdM0Bds0NIfHY12-130" value="" style="endArrow=oval;html=1;rounded=0;exitX=1;exitY=0.5;exitDx=0;exitDy=0;entryX=0;entryY=0.5;entryDx=0;entryDy=0;startArrow=oval;startFill=1;endFill=1;strokeColor=#7030A0;" parent="1" source="cykdBwdM0Bds0NIfHY12-129" target="cykdBwdM0Bds0NIfHY12-49" edge="1">
          <mxGeometry width="50" height="50" relative="1" as="geometry">
            <mxPoint x="205" y="191" as="sourcePoint" />
            <mxPoint x="307" y="191" as="targetPoint" />
          </mxGeometry>
        </mxCell>
        <mxCell id="cykdBwdM0Bds0NIfHY12-131" value="Middle Initial" style="rounded=0;whiteSpace=wrap;html=1;strokeColor=#FFFFFF;fillColor=#7030A0;fontColor=#FFFFFF;align=left;spacingLeft=3;" parent="1" vertex="1">
          <mxGeometry x="14.873999999999999" y="316.0899999999999" width="180" height="30" as="geometry" />
        </mxCell>
        <mxCell id="cykdBwdM0Bds0NIfHY12-132" value="" style="endArrow=oval;html=1;rounded=0;exitX=1;exitY=0.5;exitDx=0;exitDy=0;entryX=0;entryY=0.5;entryDx=0;entryDy=0;startArrow=oval;startFill=1;endFill=1;strokeColor=#7030A0;" parent="1" source="cykdBwdM0Bds0NIfHY12-131" target="cykdBwdM0Bds0NIfHY12-73" edge="1">
          <mxGeometry width="50" height="50" relative="1" as="geometry">
            <mxPoint x="205" y="311" as="sourcePoint" />
            <mxPoint x="307" y="311" as="targetPoint" />
          </mxGeometry>
        </mxCell>
        <mxCell id="cykdBwdM0Bds0NIfHY12-133" value="Email Address" style="rounded=0;whiteSpace=wrap;html=1;strokeColor=#FFFFFF;fillColor=#7030A0;fontColor=#FFFFFF;align=left;spacingLeft=3;" parent="1" vertex="1">
          <mxGeometry x="14.873999999999999" y="346.0899999999999" width="180" height="30" as="geometry" />
        </mxCell>
        <mxCell id="cykdBwdM0Bds0NIfHY12-136" value="department" style="rounded=0;whiteSpace=wrap;html=1;strokeColor=#FFFFFF;fillColor=#7030A0;fontColor=#FFFFFF;align=left;spacingLeft=3;" parent="1" vertex="1">
          <mxGeometry x="14.873999999999999" y="436.0899999999999" width="180" height="30" as="geometry" />
        </mxCell>
        <mxCell id="cykdBwdM0Bds0NIfHY12-137" value="" style="endArrow=oval;html=1;rounded=0;exitX=1;exitY=0.5;exitDx=0;exitDy=0;entryX=0;entryY=0.5;entryDx=0;entryDy=0;startArrow=oval;startFill=1;endFill=1;strokeColor=#7030A0;" parent="1" source="cykdBwdM0Bds0NIfHY12-133" target="cykdBwdM0Bds0NIfHY12-79" edge="1">
          <mxGeometry width="50" height="50" relative="1" as="geometry">
            <mxPoint x="205" y="341" as="sourcePoint" />
            <mxPoint x="307" y="341" as="targetPoint" />
          </mxGeometry>
        </mxCell>
        <mxCell id="cykdBwdM0Bds0NIfHY12-138" value="" style="endArrow=oval;html=1;rounded=0;exitX=1;exitY=0.5;exitDx=0;exitDy=0;entryX=0;entryY=0.5;entryDx=0;entryDy=0;startArrow=oval;startFill=1;endFill=1;strokeColor=#7030A0;" parent="1" source="cykdBwdM0Bds0NIfHY12-136" target="cykdBwdM0Bds0NIfHY12-97" edge="1">
          <mxGeometry width="50" height="50" relative="1" as="geometry">
            <mxPoint x="215" y="351" as="sourcePoint" />
            <mxPoint x="317" y="351" as="targetPoint" />
          </mxGeometry>
        </mxCell>
        <mxCell id="cykdBwdM0Bds0NIfHY12-157" value="Organization" style="rounded=0;whiteSpace=wrap;html=1;strokeColor=#FFFFFF;fillColor=#7030A0;fontColor=#FFFFFF;align=left;spacingLeft=3;" parent="1" vertex="1">
          <mxGeometry x="14.873999999999999" y="526.0899999999999" width="180" height="30" as="geometry" />
        </mxCell>
        <mxCell id="cykdBwdM0Bds0NIfHY12-158" value="" style="endArrow=oval;html=1;rounded=0;exitX=1;exitY=0.5;exitDx=0;exitDy=0;entryX=0;entryY=0.5;entryDx=0;entryDy=0;startArrow=oval;startFill=1;endFill=1;strokeColor=#7030A0;" parent="1" source="cykdBwdM0Bds0NIfHY12-157" target="cykdBwdM0Bds0NIfHY12-139" edge="1">
          <mxGeometry width="50" height="50" relative="1" as="geometry">
            <mxPoint x="205" y="461" as="sourcePoint" />
            <mxPoint x="307" y="461" as="targetPoint" />
          </mxGeometry>
        </mxCell>
        <mxCell id="cykdBwdM0Bds0NIfHY12-159" value="organizationalUnit" style="rounded=0;whiteSpace=wrap;html=1;strokeColor=#FFFFFF;fillColor=#7030A0;fontColor=#FFFFFF;align=left;spacingLeft=3;" parent="1" vertex="1">
          <mxGeometry x="14.873999999999999" y="556.0899999999999" width="180" height="30" as="geometry" />
        </mxCell>
        <mxCell id="cykdBwdM0Bds0NIfHY12-160" value="division" style="rounded=0;whiteSpace=wrap;html=1;strokeColor=#FFFFFF;fillColor=#7030A0;fontColor=#FFFFFF;align=left;spacingLeft=3;" parent="1" vertex="1">
          <mxGeometry x="14.873999999999999" y="586.0899999999999" width="180" height="30" as="geometry" />
        </mxCell>
        <mxCell id="cykdBwdM0Bds0NIfHY12-167" value="uniqueIdentifier" style="rounded=0;whiteSpace=wrap;html=1;strokeColor=#FFFFFF;fillColor=#7030A0;fontColor=#FFFFFF;align=left;spacingLeft=3;" parent="1" vertex="1">
          <mxGeometry x="14.873999999999999" y="616.0899999999999" width="180" height="30" as="geometry" />
        </mxCell>
        <mxCell id="cykdBwdM0Bds0NIfHY12-168" value="anonymized" style="rounded=0;whiteSpace=wrap;html=1;strokeColor=#FFFFFF;fillColor=#7030A0;fontColor=#FFFFFF;align=left;spacingLeft=3;" parent="1" vertex="1">
          <mxGeometry x="14.873999999999999" y="646.0899999999999" width="180" height="30" as="geometry" />
        </mxCell>
        <mxCell id="cykdBwdM0Bds0NIfHY12-193" value="" style="endArrow=oval;html=1;rounded=0;exitX=1;exitY=0.5;exitDx=0;exitDy=0;entryX=0;entryY=0.5;entryDx=0;entryDy=0;startArrow=oval;startFill=1;endFill=1;strokeColor=#7030A0;" parent="1" source="cykdBwdM0Bds0NIfHY12-159" target="cykdBwdM0Bds0NIfHY12-181" edge="1">
          <mxGeometry width="50" height="50" relative="1" as="geometry">
            <mxPoint x="205" y="551" as="sourcePoint" />
            <mxPoint x="307" y="551" as="targetPoint" />
          </mxGeometry>
        </mxCell>
        <mxCell id="cykdBwdM0Bds0NIfHY12-194" value="" style="endArrow=oval;html=1;rounded=0;exitX=1;exitY=0.5;exitDx=0;exitDy=0;entryX=0;entryY=0.5;entryDx=0;entryDy=0;startArrow=oval;startFill=1;endFill=1;strokeColor=#7030A0;" parent="1" source="cykdBwdM0Bds0NIfHY12-160" target="cykdBwdM0Bds0NIfHY12-187" edge="1">
          <mxGeometry width="50" height="50" relative="1" as="geometry">
            <mxPoint x="215" y="561" as="sourcePoint" />
            <mxPoint x="317" y="561" as="targetPoint" />
          </mxGeometry>
        </mxCell>
        <mxCell id="cykdBwdM0Bds0NIfHY12-195" value="" style="endArrow=oval;html=1;rounded=0;exitX=1;exitY=0.5;exitDx=0;exitDy=0;entryX=0;entryY=0.5;entryDx=0;entryDy=0;startArrow=oval;startFill=1;endFill=1;strokeColor=#7030A0;" parent="1" source="cykdBwdM0Bds0NIfHY12-167" target="cykdBwdM0Bds0NIfHY12-151" edge="1">
          <mxGeometry width="50" height="50" relative="1" as="geometry">
            <mxPoint x="225" y="571" as="sourcePoint" />
            <mxPoint x="327" y="571" as="targetPoint" />
          </mxGeometry>
        </mxCell>
        <mxCell id="cykdBwdM0Bds0NIfHY12-196" value="" style="endArrow=oval;html=1;rounded=0;exitX=1;exitY=0.5;exitDx=0;exitDy=0;entryX=0;entryY=0.5;entryDx=0;entryDy=0;startArrow=oval;startFill=1;endFill=1;strokeColor=#7030A0;" parent="1" source="cykdBwdM0Bds0NIfHY12-168" target="cykdBwdM0Bds0NIfHY12-145" edge="1">
          <mxGeometry width="50" height="50" relative="1" as="geometry">
            <mxPoint x="235" y="581" as="sourcePoint" />
            <mxPoint x="337" y="581" as="targetPoint" />
          </mxGeometry>
        </mxCell>
        <mxCell id="cykdBwdM0Bds0NIfHY12-197" value="Account" style="rounded=0;whiteSpace=wrap;html=1;strokeColor=#5B9BD5;fontColor=#5B9BD5;fontStyle=1;verticalAlign=middle;align=left;spacingLeft=3;" parent="1" vertex="1">
          <mxGeometry x="828" y="9" width="218" height="30" as="geometry" />
        </mxCell>
        <mxCell id="cykdBwdM0Bds0NIfHY12-198" value="" style="rounded=0;whiteSpace=wrap;html=1;strokeColor=#5B9BD5;fillColor=#f5f5f5;fontColor=#333333;" parent="1" vertex="1">
          <mxGeometry x="828" y="39" width="218" height="650" as="geometry" />
        </mxCell>
        <mxCell id="cykdBwdM0Bds0NIfHY12-200" value="uid" style="rounded=0;whiteSpace=wrap;html=1;strokeColor=#FFFF00;fillColor=#FFFFCC;fontColor=#000000;align=left;spacingLeft=3;" parent="1" vertex="1">
          <mxGeometry x="847.004" y="106.08999999999997" width="180" height="30" as="geometry" />
        </mxCell>
        <mxCell id="cykdBwdM0Bds0NIfHY12-201" value="userPassword" style="rounded=0;whiteSpace=wrap;html=1;strokeColor=#FFFF00;fillColor=#FFFFCC;fontColor=#000000;align=left;spacingLeft=3;" parent="1" vertex="1">
          <mxGeometry x="847.004" y="136.08999999999997" width="180" height="30" as="geometry" />
        </mxCell>
        <mxCell id="cykdBwdM0Bds0NIfHY12-202" value="cn" style="rounded=0;whiteSpace=wrap;html=1;strokeColor=#FFFF00;fillColor=#FFFFCC;fontColor=#000000;align=left;spacingLeft=3;" parent="1" vertex="1">
          <mxGeometry x="847.004" y="166.08999999999997" width="180" height="30" as="geometry" />
        </mxCell>
        <mxCell id="cykdBwdM0Bds0NIfHY12-203" value="krbPrincipalName" style="rounded=0;whiteSpace=wrap;html=1;strokeColor=#FFFF00;fillColor=#FFFFCC;fontColor=#000000;align=left;spacingLeft=3;" parent="1" vertex="1">
          <mxGeometry x="847.004" y="196.08999999999997" width="180" height="30" as="geometry" />
        </mxCell>
        <mxCell id="cykdBwdM0Bds0NIfHY12-204" value="title" style="rounded=0;whiteSpace=wrap;html=1;strokeColor=#FFFF00;fillColor=#FFFFCC;fontColor=#000000;align=left;spacingLeft=3;" parent="1" vertex="1">
          <mxGeometry x="847.004" y="226.08999999999997" width="180" height="30" as="geometry" />
        </mxCell>
        <mxCell id="cykdBwdM0Bds0NIfHY12-205" value="sn" style="rounded=0;whiteSpace=wrap;html=1;strokeColor=#FFFF00;fillColor=#FFFFCC;fontColor=#000000;align=left;spacingLeft=3;" parent="1" vertex="1">
          <mxGeometry x="847.004" y="256.09" width="180" height="30" as="geometry" />
        </mxCell>
        <mxCell id="cykdBwdM0Bds0NIfHY12-206" value="givenName" style="rounded=0;whiteSpace=wrap;html=1;strokeColor=#FFFF00;fillColor=#FFFFCC;fontColor=#000000;align=left;spacingLeft=3;" parent="1" vertex="1">
          <mxGeometry x="847.004" y="286.09" width="180" height="30" as="geometry" />
        </mxCell>
        <mxCell id="cykdBwdM0Bds0NIfHY12-207" value="initials" style="rounded=0;whiteSpace=wrap;html=1;strokeColor=#FFFF00;fillColor=#FFFFCC;fontColor=#000000;align=left;spacingLeft=3;" parent="1" vertex="1">
          <mxGeometry x="847.004" y="316.09" width="180" height="30" as="geometry" />
        </mxCell>
        <mxCell id="cykdBwdM0Bds0NIfHY12-208" value="mail" style="rounded=0;whiteSpace=wrap;html=1;strokeColor=#FFFF00;fillColor=#FFFFCC;fontColor=#000000;align=left;spacingLeft=3;" parent="1" vertex="1">
          <mxGeometry x="847.004" y="346.09" width="180" height="30" as="geometry" />
        </mxCell>
        <mxCell id="cykdBwdM0Bds0NIfHY12-209" value="telephoneNumber" style="rounded=0;whiteSpace=wrap;html=1;strokeColor=#FFFF00;fillColor=#FFFFCC;fontColor=#000000;align=left;spacingLeft=3;" parent="1" vertex="1">
          <mxGeometry x="847.004" y="376.09" width="180" height="30" as="geometry" />
        </mxCell>
        <mxCell id="cykdBwdM0Bds0NIfHY12-210" value="preferredLanguage" style="rounded=0;whiteSpace=wrap;html=1;strokeColor=#FFFF00;fillColor=#FFFFCC;fontColor=#000000;align=left;spacingLeft=3;" parent="1" vertex="1">
          <mxGeometry x="847.004" y="406.09" width="180" height="30" as="geometry" />
        </mxCell>
        <mxCell id="cykdBwdM0Bds0NIfHY12-211" value="departmentNumber" style="rounded=0;whiteSpace=wrap;html=1;strokeColor=#FFFF00;fillColor=#FFFFCC;fontColor=#000000;align=left;spacingLeft=3;" parent="1" vertex="1">
          <mxGeometry x="847.004" y="436.09" width="180" height="30" as="geometry" />
        </mxCell>
        <mxCell id="cykdBwdM0Bds0NIfHY12-212" value="l" style="rounded=0;whiteSpace=wrap;html=1;strokeColor=#FFFF00;fillColor=#FFFFCC;fontColor=#000000;align=left;spacingLeft=3;" parent="1" vertex="1">
          <mxGeometry x="847.004" y="466.0899999999999" width="180" height="30" as="geometry" />
        </mxCell>
        <mxCell id="cykdBwdM0Bds0NIfHY12-213" value="o" style="rounded=0;whiteSpace=wrap;html=1;strokeColor=#FFFF00;fillColor=#FFFFCC;fontColor=#000000;align=left;spacingLeft=3;" parent="1" vertex="1">
          <mxGeometry x="847.004" y="526.0899999999999" width="180" height="30" as="geometry" />
        </mxCell>
        <mxCell id="cykdBwdM0Bds0NIfHY12-214" value="ou" style="rounded=0;whiteSpace=wrap;html=1;strokeColor=#FFFF00;fillColor=#FFFFCC;fontColor=#000000;align=left;spacingLeft=3;" parent="1" vertex="1">
          <mxGeometry x="847.004" y="556.0899999999999" width="180" height="30" as="geometry" />
        </mxCell>
        <mxCell id="cykdBwdM0Bds0NIfHY12-215" value="physicalDeliveryOfficeName" style="rounded=0;whiteSpace=wrap;html=1;strokeColor=#FFFF00;fillColor=#FFFFCC;fontColor=#000000;align=left;spacingLeft=3;" parent="1" vertex="1">
          <mxGeometry x="847.004" y="586.0899999999999" width="180" height="30" as="geometry" />
        </mxCell>
        <mxCell id="cykdBwdM0Bds0NIfHY12-216" value="policeIdentifierName" style="rounded=0;whiteSpace=wrap;html=1;strokeColor=#FFFF00;fillColor=#FFFFCC;fontColor=#000000;align=left;spacingLeft=3;" parent="1" vertex="1">
          <mxGeometry x="847.004" y="616.0899999999999" width="180" height="30" as="geometry" />
        </mxCell>
        <mxCell id="cykdBwdM0Bds0NIfHY12-217" value="policeAnonymousName" style="rounded=0;whiteSpace=wrap;html=1;strokeColor=#FFFF00;fillColor=#FFFFCC;fontColor=#000000;align=left;spacingLeft=3;" parent="1" vertex="1">
          <mxGeometry x="847.004" y="646.0899999999999" width="180" height="30" as="geometry" />
        </mxCell>
        <mxCell id="cykdBwdM0Bds0NIfHY12-218" value="IDS Account Group" style="rounded=0;whiteSpace=wrap;html=1;strokeColor=#5B9BD5;fontColor=#5B9BD5;fontStyle=1;verticalAlign=middle;align=left;spacingLeft=3;" parent="1" vertex="1">
          <mxGeometry x="300" y="696" width="440" height="30" as="geometry" />
        </mxCell>
        <mxCell id="cykdBwdM0Bds0NIfHY12-219" value="" style="rounded=0;whiteSpace=wrap;html=1;strokeColor=#5B9BD5;fillColor=#f5f5f5;fontColor=#333333;" parent="1" vertex="1">
          <mxGeometry x="300" y="726" width="440" height="50" as="geometry" />
        </mxCell>
        <mxCell id="cykdBwdM0Bds0NIfHY12-233" value="" style="shape=table;startSize=0;container=1;collapsible=0;childLayout=tableLayout;fillColor=#5B9BD5;strokeColor=#5B9BD5;fontColor=#FFFFFF;spacingRight=3;spacingLeft=3;" parent="1" vertex="1">
          <mxGeometry x="310" y="736" width="420" height="30" as="geometry" />
        </mxCell>
        <mxCell id="cykdBwdM0Bds0NIfHY12-240" style="shape=tableRow;horizontal=0;startSize=0;swimlaneHead=0;swimlaneBody=0;strokeColor=inherit;top=0;left=0;bottom=0;right=0;collapsible=0;dropTarget=0;fillColor=none;points=[[0,0.5],[1,0.5]];portConstraint=eastwest;fontColor=#FFFFFF;" parent="cykdBwdM0Bds0NIfHY12-233" vertex="1">
          <mxGeometry width="420" height="30" as="geometry" />
        </mxCell>
        <mxCell id="cykdBwdM0Bds0NIfHY12-241" value="2" style="shape=partialRectangle;html=1;whiteSpace=wrap;connectable=0;strokeColor=inherit;overflow=hidden;fillColor=none;top=0;left=0;bottom=0;right=0;pointerEvents=1;align=right;spacingLeft=3;fontColor=#FFFFFF;" parent="cykdBwdM0Bds0NIfHY12-240" vertex="1">
          <mxGeometry width="21" height="30" as="geometry">
            <mxRectangle width="21" height="30" as="alternateBounds" />
          </mxGeometry>
        </mxCell>
        <mxCell id="cykdBwdM0Bds0NIfHY12-242" value="Group Name" style="shape=partialRectangle;html=1;whiteSpace=wrap;connectable=0;strokeColor=inherit;overflow=hidden;fillColor=none;top=0;left=0;bottom=0;right=0;pointerEvents=1;align=left;spacingLeft=3;fontColor=#FFFFFF;" parent="cykdBwdM0Bds0NIfHY12-240" vertex="1">
          <mxGeometry x="21" width="105" height="30" as="geometry">
            <mxRectangle width="105" height="30" as="alternateBounds" />
          </mxGeometry>
        </mxCell>
        <mxCell id="cykdBwdM0Bds0NIfHY12-243" value="UD_IDS_GRP_GROUP_NAME" style="shape=partialRectangle;html=1;whiteSpace=wrap;connectable=0;strokeColor=inherit;overflow=hidden;fillColor=none;top=0;left=0;bottom=0;right=0;pointerEvents=1;align=left;spacingLeft=3;fontColor=#FFFFFF;" parent="cykdBwdM0Bds0NIfHY12-240" vertex="1">
          <mxGeometry x="126" width="189" height="30" as="geometry">
            <mxRectangle width="189" height="30" as="alternateBounds" />
          </mxGeometry>
        </mxCell>
        <mxCell id="cykdBwdM0Bds0NIfHY12-244" value="String" style="shape=partialRectangle;html=1;whiteSpace=wrap;connectable=0;strokeColor=inherit;overflow=hidden;fillColor=none;top=0;left=0;bottom=0;right=0;pointerEvents=1;align=left;spacingLeft=3;fontColor=#FFFFFF;" parent="cykdBwdM0Bds0NIfHY12-240" vertex="1">
          <mxGeometry x="315" width="56" height="30" as="geometry">
            <mxRectangle width="56" height="30" as="alternateBounds" />
          </mxGeometry>
        </mxCell>
        <mxCell id="cykdBwdM0Bds0NIfHY12-245" value="400" style="shape=partialRectangle;whiteSpace=wrap;connectable=0;strokeColor=inherit;overflow=hidden;fillColor=none;top=0;left=0;bottom=0;right=0;pointerEvents=1;align=right;spacingLeft=3;fontColor=#FFFFFF;spacingRight=3;" parent="cykdBwdM0Bds0NIfHY12-240" vertex="1">
          <mxGeometry x="371" width="49" height="30" as="geometry">
            <mxRectangle width="49" height="30" as="alternateBounds" />
          </mxGeometry>
        </mxCell>
        <mxCell id="cykdBwdM0Bds0NIfHY12-360" value="IDS Account Role" style="rounded=0;whiteSpace=wrap;html=1;strokeColor=#5B9BD5;fontColor=#5B9BD5;fontStyle=1;verticalAlign=middle;align=left;spacingLeft=3;" parent="1" vertex="1">
          <mxGeometry x="300" y="796" width="440" height="30" as="geometry" />
        </mxCell>
        <mxCell id="cykdBwdM0Bds0NIfHY12-361" value="" style="rounded=0;whiteSpace=wrap;html=1;strokeColor=#5B9BD5;fillColor=#f5f5f5;fontColor=#333333;" parent="1" vertex="1">
          <mxGeometry x="300" y="826" width="440" height="50" as="geometry" />
        </mxCell>
        <mxCell id="cykdBwdM0Bds0NIfHY12-362" value="" style="shape=table;startSize=0;container=1;collapsible=0;childLayout=tableLayout;fillColor=#5B9BD5;strokeColor=#5B9BD5;fontColor=#FFFFFF;spacingRight=3;spacingLeft=3;" parent="1" vertex="1">
          <mxGeometry x="310" y="836" width="420" height="30" as="geometry" />
        </mxCell>
        <mxCell id="cykdBwdM0Bds0NIfHY12-363" style="shape=tableRow;horizontal=0;startSize=0;swimlaneHead=0;swimlaneBody=0;strokeColor=inherit;top=0;left=0;bottom=0;right=0;collapsible=0;dropTarget=0;fillColor=none;points=[[0,0.5],[1,0.5]];portConstraint=eastwest;fontColor=#FFFFFF;" parent="cykdBwdM0Bds0NIfHY12-362" vertex="1">
          <mxGeometry width="420" height="30" as="geometry" />
        </mxCell>
        <mxCell id="cykdBwdM0Bds0NIfHY12-364" value="2" style="shape=partialRectangle;html=1;whiteSpace=wrap;connectable=0;strokeColor=inherit;overflow=hidden;fillColor=none;top=0;left=0;bottom=0;right=0;pointerEvents=1;align=right;spacingLeft=3;fontColor=#FFFFFF;" parent="cykdBwdM0Bds0NIfHY12-363" vertex="1">
          <mxGeometry width="22" height="30" as="geometry">
            <mxRectangle width="22" height="30" as="alternateBounds" />
          </mxGeometry>
        </mxCell>
        <mxCell id="cykdBwdM0Bds0NIfHY12-365" value="Role Name" style="shape=partialRectangle;html=1;whiteSpace=wrap;connectable=0;strokeColor=inherit;overflow=hidden;fillColor=none;top=0;left=0;bottom=0;right=0;pointerEvents=1;align=left;spacingLeft=3;fontColor=#FFFFFF;" parent="cykdBwdM0Bds0NIfHY12-363" vertex="1">
          <mxGeometry x="22" width="104" height="30" as="geometry">
            <mxRectangle width="104" height="30" as="alternateBounds" />
          </mxGeometry>
        </mxCell>
        <mxCell id="cykdBwdM0Bds0NIfHY12-366" value="UD_IDS_ROL_ROLE_NAME" style="shape=partialRectangle;html=1;whiteSpace=wrap;connectable=0;strokeColor=inherit;overflow=hidden;fillColor=none;top=0;left=0;bottom=0;right=0;pointerEvents=1;align=left;spacingLeft=3;fontColor=#FFFFFF;" parent="cykdBwdM0Bds0NIfHY12-363" vertex="1">
          <mxGeometry x="126" width="190" height="30" as="geometry">
            <mxRectangle width="190" height="30" as="alternateBounds" />
          </mxGeometry>
        </mxCell>
        <mxCell id="cykdBwdM0Bds0NIfHY12-367" value="String" style="shape=partialRectangle;html=1;whiteSpace=wrap;connectable=0;strokeColor=inherit;overflow=hidden;fillColor=none;top=0;left=0;bottom=0;right=0;pointerEvents=1;align=left;spacingLeft=3;fontColor=#FFFFFF;" parent="cykdBwdM0Bds0NIfHY12-363" vertex="1">
          <mxGeometry x="316" width="55" height="30" as="geometry">
            <mxRectangle width="55" height="30" as="alternateBounds" />
          </mxGeometry>
        </mxCell>
        <mxCell id="cykdBwdM0Bds0NIfHY12-368" value="400" style="shape=partialRectangle;whiteSpace=wrap;connectable=0;strokeColor=inherit;overflow=hidden;fillColor=none;top=0;left=0;bottom=0;right=0;pointerEvents=1;align=right;spacingLeft=3;fontColor=#FFFFFF;spacingRight=3;" parent="cykdBwdM0Bds0NIfHY12-363" vertex="1">
          <mxGeometry x="371" width="49" height="30" as="geometry">
            <mxRectangle width="49" height="30" as="alternateBounds" />
          </mxGeometry>
        </mxCell>
        <mxCell id="cykdBwdM0Bds0NIfHY12-371" value="" style="endArrow=diamondThin;html=1;rounded=0;exitX=0;exitY=0.5;exitDx=0;exitDy=0;strokeColor=#5B9BD5;startArrow=none;startFill=0;endFill=0;" parent="1" source="cykdBwdM0Bds0NIfHY12-360" edge="1">
          <mxGeometry width="50" height="50" relative="1" as="geometry">
            <mxPoint x="310" y="745" as="sourcePoint" />
            <mxPoint x="260" y="690" as="targetPoint" />
            <Array as="points">
              <mxPoint x="260" y="811" />
            </Array>
          </mxGeometry>
        </mxCell>
        <mxCell id="cykdBwdM0Bds0NIfHY12-372" value="Group" style="rounded=0;whiteSpace=wrap;html=1;strokeColor=#5B9BD5;fontColor=#5B9BD5;fontStyle=1;verticalAlign=middle;align=left;spacingLeft=3;" parent="1" vertex="1">
          <mxGeometry x="831.5" y="696" width="211" height="30" as="geometry" />
        </mxCell>
        <mxCell id="cykdBwdM0Bds0NIfHY12-373" value="" style="rounded=0;whiteSpace=wrap;html=1;strokeColor=#5B9BD5;fillColor=#f5f5f5;fontColor=#333333;" parent="1" vertex="1">
          <mxGeometry x="831.5" y="726" width="211" height="50" as="geometry" />
        </mxCell>
        <mxCell id="cykdBwdM0Bds0NIfHY12-374" value="Role" style="rounded=0;whiteSpace=wrap;html=1;strokeColor=#5B9BD5;fontColor=#5B9BD5;fontStyle=1;verticalAlign=middle;align=left;spacingLeft=3;" parent="1" vertex="1">
          <mxGeometry x="831.5" y="796" width="211" height="30" as="geometry" />
        </mxCell>
        <mxCell id="cykdBwdM0Bds0NIfHY12-375" value="" style="rounded=0;whiteSpace=wrap;html=1;strokeColor=#5B9BD5;fillColor=#f5f5f5;fontColor=#333333;" parent="1" vertex="1">
          <mxGeometry x="831.5" y="826" width="211" height="50" as="geometry" />
        </mxCell>
        <mxCell id="cykdBwdM0Bds0NIfHY12-376" value="" style="endArrow=classic;html=1;rounded=0;entryX=0;entryY=0.5;entryDx=0;entryDy=0;exitX=1;exitY=0.5;exitDx=0;exitDy=0;strokeColor=#000000;" parent="1" source="cykdBwdM0Bds0NIfHY12-31" target="cykdBwdM0Bds0NIfHY12-200" edge="1">
          <mxGeometry width="50" height="50" relative="1" as="geometry">
            <mxPoint x="560" y="340" as="sourcePoint" />
            <mxPoint x="610" y="290" as="targetPoint" />
          </mxGeometry>
        </mxCell>
        <mxCell id="cykdBwdM0Bds0NIfHY12-378" style="edgeStyle=orthogonalEdgeStyle;rounded=0;orthogonalLoop=1;jettySize=auto;html=1;exitX=1;exitY=0.5;exitDx=0;exitDy=0;entryX=0;entryY=0.5;entryDx=0;entryDy=0;strokeColor=#000000;" parent="1" source="cykdBwdM0Bds0NIfHY12-37" target="cykdBwdM0Bds0NIfHY12-201" edge="1">
          <mxGeometry relative="1" as="geometry" />
        </mxCell>
        <mxCell id="cykdBwdM0Bds0NIfHY12-379" style="edgeStyle=orthogonalEdgeStyle;rounded=0;orthogonalLoop=1;jettySize=auto;html=1;exitX=1;exitY=0.5;exitDx=0;exitDy=0;entryX=0;entryY=0.5;entryDx=0;entryDy=0;strokeColor=#000000;" parent="1" source="cykdBwdM0Bds0NIfHY12-43" target="cykdBwdM0Bds0NIfHY12-202" edge="1">
          <mxGeometry relative="1" as="geometry" />
        </mxCell>
        <mxCell id="cykdBwdM0Bds0NIfHY12-380" style="edgeStyle=orthogonalEdgeStyle;rounded=0;orthogonalLoop=1;jettySize=auto;html=1;exitX=1;exitY=0.5;exitDx=0;exitDy=0;entryX=0;entryY=0.5;entryDx=0;entryDy=0;strokeColor=#000000;" parent="1" source="cykdBwdM0Bds0NIfHY12-49" target="cykdBwdM0Bds0NIfHY12-203" edge="1">
          <mxGeometry relative="1" as="geometry" />
        </mxCell>
        <mxCell id="cykdBwdM0Bds0NIfHY12-381" style="edgeStyle=orthogonalEdgeStyle;rounded=0;orthogonalLoop=1;jettySize=auto;html=1;exitX=1;exitY=0.5;exitDx=0;exitDy=0;entryX=0;entryY=0.5;entryDx=0;entryDy=0;strokeColor=#000000;" parent="1" source="cykdBwdM0Bds0NIfHY12-55" target="cykdBwdM0Bds0NIfHY12-204" edge="1">
          <mxGeometry relative="1" as="geometry" />
        </mxCell>
        <mxCell id="cykdBwdM0Bds0NIfHY12-382" style="edgeStyle=orthogonalEdgeStyle;rounded=0;orthogonalLoop=1;jettySize=auto;html=1;exitX=1;exitY=0.5;exitDx=0;exitDy=0;entryX=0;entryY=0.5;entryDx=0;entryDy=0;strokeColor=#000000;" parent="1" source="cykdBwdM0Bds0NIfHY12-61" target="cykdBwdM0Bds0NIfHY12-205" edge="1">
          <mxGeometry relative="1" as="geometry" />
        </mxCell>
        <mxCell id="cykdBwdM0Bds0NIfHY12-383" style="edgeStyle=orthogonalEdgeStyle;rounded=0;orthogonalLoop=1;jettySize=auto;html=1;exitX=1;exitY=0.5;exitDx=0;exitDy=0;entryX=0;entryY=0.5;entryDx=0;entryDy=0;strokeColor=#000000;" parent="1" source="cykdBwdM0Bds0NIfHY12-67" target="cykdBwdM0Bds0NIfHY12-206" edge="1">
          <mxGeometry relative="1" as="geometry" />
        </mxCell>
        <mxCell id="cykdBwdM0Bds0NIfHY12-384" value="" style="endArrow=oval;html=1;rounded=0;exitX=1;exitY=0.5;exitDx=0;exitDy=0;entryX=0;entryY=0.5;entryDx=0;entryDy=0;startArrow=oval;startFill=1;endFill=1;strokeColor=#7030A0;fontColor=#7030A0;labelBorderColor=#7030A0;spacingBottom=3;labelBackgroundColor=none;fontSize=17;" parent="1" source="cykdBwdM0Bds0NIfHY12-6" target="cykdBwdM0Bds0NIfHY12-31" edge="1">
          <mxGeometry width="50" height="50" relative="1" as="geometry">
            <mxPoint x="205" y="101" as="sourcePoint" />
            <mxPoint x="270" y="101" as="targetPoint" />
          </mxGeometry>
        </mxCell>
        <mxCell id="cykdBwdM0Bds0NIfHY12-385" value="&amp;nbsp;T&amp;nbsp;" style="edgeLabel;html=1;align=center;verticalAlign=middle;resizable=0;points=[];fontSize=15;fontColor=#FFFFFF;labelBorderColor=#7030A0;labelBackgroundColor=#7030A0;spacingBottom=5;spacingLeft=3;spacingRight=3;" parent="cykdBwdM0Bds0NIfHY12-384" vertex="1" connectable="0">
          <mxGeometry x="0.0012" y="-2" relative="1" as="geometry">
            <mxPoint as="offset" />
          </mxGeometry>
        </mxCell>
        <mxCell id="cykdBwdM0Bds0NIfHY12-386" style="edgeStyle=orthogonalEdgeStyle;rounded=0;orthogonalLoop=1;jettySize=auto;html=1;exitX=1;exitY=0.5;exitDx=0;exitDy=0;entryX=0;entryY=0.5;entryDx=0;entryDy=0;" parent="1" source="cykdBwdM0Bds0NIfHY12-73" target="cykdBwdM0Bds0NIfHY12-207" edge="1">
          <mxGeometry relative="1" as="geometry" />
        </mxCell>
        <mxCell id="cykdBwdM0Bds0NIfHY12-387" style="edgeStyle=orthogonalEdgeStyle;rounded=0;orthogonalLoop=1;jettySize=auto;html=1;exitX=1;exitY=0.5;exitDx=0;exitDy=0;entryX=0;entryY=0.5;entryDx=0;entryDy=0;" parent="1" source="cykdBwdM0Bds0NIfHY12-79" target="cykdBwdM0Bds0NIfHY12-208" edge="1">
          <mxGeometry relative="1" as="geometry" />
        </mxCell>
        <mxCell id="cykdBwdM0Bds0NIfHY12-388" style="edgeStyle=orthogonalEdgeStyle;rounded=0;orthogonalLoop=1;jettySize=auto;html=1;exitX=1;exitY=0.5;exitDx=0;exitDy=0;entryX=0;entryY=0.5;entryDx=0;entryDy=0;" parent="1" source="cykdBwdM0Bds0NIfHY12-85" target="cykdBwdM0Bds0NIfHY12-209" edge="1">
          <mxGeometry relative="1" as="geometry" />
        </mxCell>
        <mxCell id="cykdBwdM0Bds0NIfHY12-389" style="edgeStyle=orthogonalEdgeStyle;rounded=0;orthogonalLoop=1;jettySize=auto;html=1;exitX=1;exitY=0.5;exitDx=0;exitDy=0;entryX=0;entryY=0.5;entryDx=0;entryDy=0;" parent="1" source="cykdBwdM0Bds0NIfHY12-91" target="cykdBwdM0Bds0NIfHY12-210" edge="1">
          <mxGeometry relative="1" as="geometry" />
        </mxCell>
        <mxCell id="cykdBwdM0Bds0NIfHY12-390" style="edgeStyle=orthogonalEdgeStyle;rounded=0;orthogonalLoop=1;jettySize=auto;html=1;exitX=1;exitY=0.5;exitDx=0;exitDy=0;" parent="1" source="cykdBwdM0Bds0NIfHY12-97" target="cykdBwdM0Bds0NIfHY12-211" edge="1">
          <mxGeometry relative="1" as="geometry" />
        </mxCell>
        <mxCell id="cykdBwdM0Bds0NIfHY12-391" style="edgeStyle=orthogonalEdgeStyle;rounded=0;orthogonalLoop=1;jettySize=auto;html=1;exitX=1;exitY=0.5;exitDx=0;exitDy=0;entryX=0;entryY=0.5;entryDx=0;entryDy=0;" parent="1" source="cykdBwdM0Bds0NIfHY12-103" target="cykdBwdM0Bds0NIfHY12-212" edge="1">
          <mxGeometry relative="1" as="geometry" />
        </mxCell>
        <mxCell id="cykdBwdM0Bds0NIfHY12-392" style="edgeStyle=orthogonalEdgeStyle;rounded=0;orthogonalLoop=1;jettySize=auto;html=1;exitX=1;exitY=0.5;exitDx=0;exitDy=0;entryX=0;entryY=0.5;entryDx=0;entryDy=0;" parent="1" source="cykdBwdM0Bds0NIfHY12-139" target="cykdBwdM0Bds0NIfHY12-213" edge="1">
          <mxGeometry relative="1" as="geometry" />
        </mxCell>
        <mxCell id="cykdBwdM0Bds0NIfHY12-393" style="edgeStyle=orthogonalEdgeStyle;rounded=0;orthogonalLoop=1;jettySize=auto;html=1;exitX=1;exitY=0.5;exitDx=0;exitDy=0;entryX=0;entryY=0.5;entryDx=0;entryDy=0;" parent="1" source="cykdBwdM0Bds0NIfHY12-181" target="cykdBwdM0Bds0NIfHY12-214" edge="1">
          <mxGeometry relative="1" as="geometry" />
        </mxCell>
        <mxCell id="cykdBwdM0Bds0NIfHY12-394" style="edgeStyle=orthogonalEdgeStyle;rounded=0;orthogonalLoop=1;jettySize=auto;html=1;exitX=1;exitY=0.5;exitDx=0;exitDy=0;entryX=0;entryY=0.5;entryDx=0;entryDy=0;" parent="1" source="cykdBwdM0Bds0NIfHY12-187" target="cykdBwdM0Bds0NIfHY12-215" edge="1">
          <mxGeometry relative="1" as="geometry" />
        </mxCell>
        <mxCell id="cykdBwdM0Bds0NIfHY12-395" style="edgeStyle=orthogonalEdgeStyle;rounded=0;orthogonalLoop=1;jettySize=auto;html=1;exitX=1;exitY=0.5;exitDx=0;exitDy=0;entryX=0;entryY=0.5;entryDx=0;entryDy=0;" parent="1" source="cykdBwdM0Bds0NIfHY12-151" target="cykdBwdM0Bds0NIfHY12-216" edge="1">
          <mxGeometry relative="1" as="geometry" />
        </mxCell>
        <mxCell id="cykdBwdM0Bds0NIfHY12-396" style="edgeStyle=orthogonalEdgeStyle;rounded=0;orthogonalLoop=1;jettySize=auto;html=1;exitX=1;exitY=0.5;exitDx=0;exitDy=0;entryX=0;entryY=0.5;entryDx=0;entryDy=0;" parent="1" source="cykdBwdM0Bds0NIfHY12-145" target="cykdBwdM0Bds0NIfHY12-217" edge="1">
          <mxGeometry relative="1" as="geometry" />
        </mxCell>
        <mxCell id="cykdBwdM0Bds0NIfHY12-397" value="uniqueMember" style="rounded=0;whiteSpace=wrap;html=1;strokeColor=#FFFF00;fillColor=#FFFFCC;fontColor=#000000;align=left;spacingLeft=3;" parent="1" vertex="1">
          <mxGeometry x="847.004" y="736" width="180" height="30" as="geometry" />
        </mxCell>
        <mxCell id="cykdBwdM0Bds0NIfHY12-398" value="uniqueMember" style="rounded=0;whiteSpace=wrap;html=1;strokeColor=#FFFF00;fillColor=#FFFFCC;fontColor=#000000;align=left;spacingLeft=3;" parent="1" vertex="1">
          <mxGeometry x="847.004" y="836" width="180" height="30" as="geometry" />
        </mxCell>
        <mxCell id="cykdBwdM0Bds0NIfHY12-399" style="edgeStyle=orthogonalEdgeStyle;rounded=0;orthogonalLoop=1;jettySize=auto;html=1;exitX=1;exitY=0.5;exitDx=0;exitDy=0;entryX=0;entryY=0.5;entryDx=0;entryDy=0;" parent="1" source="cykdBwdM0Bds0NIfHY12-240" target="cykdBwdM0Bds0NIfHY12-397" edge="1">
          <mxGeometry relative="1" as="geometry">
            <mxPoint x="827" y="686" as="sourcePoint" />
            <mxPoint x="810" y="751" as="targetPoint" />
          </mxGeometry>
        </mxCell>
        <mxCell id="cykdBwdM0Bds0NIfHY12-400" style="edgeStyle=orthogonalEdgeStyle;rounded=0;orthogonalLoop=1;jettySize=auto;html=1;exitX=1;exitY=0.5;exitDx=0;exitDy=0;entryX=0;entryY=0.5;entryDx=0;entryDy=0;" parent="1" source="cykdBwdM0Bds0NIfHY12-363" target="cykdBwdM0Bds0NIfHY12-398" edge="1">
          <mxGeometry relative="1" as="geometry">
            <mxPoint x="710" y="657" as="sourcePoint" />
            <mxPoint x="810" y="851" as="targetPoint" />
          </mxGeometry>
        </mxCell>
        <mxCell id="cykdBwdM0Bds0NIfHY12-401" value="" style="endArrow=diamondThin;html=1;rounded=0;exitX=0;exitY=0.5;exitDx=0;exitDy=0;strokeColor=#5B9BD5;startArrow=none;startFill=0;endFill=0;edgeStyle=orthogonalEdgeStyle;" parent="1" source="cykdBwdM0Bds0NIfHY12-218" edge="1">
          <mxGeometry width="50" height="50" relative="1" as="geometry">
            <mxPoint x="300" y="711" as="sourcePoint" />
            <mxPoint x="280" y="689" as="targetPoint" />
          </mxGeometry>
        </mxCell>
      </root>
    </mxGraphModel>
  </diagram>
  <diagram id="-3epSQjXOjXqxw670nPy" name="IDS Formular">
    <mxGraphModel dx="1420" dy="13" grid="1" gridSize="10" guides="1" tooltips="1" connect="1" arrows="1" fold="1" page="1" pageScale="1" pageWidth="1169" pageHeight="827" math="0" shadow="0">
      <root>
        <mxCell id="0" />
        <mxCell id="1" parent="0" />
        <mxCell id="inlszF1YrQIbjWRIglU9-1" value="" style="rounded=0;whiteSpace=wrap;html=1;" vertex="1" parent="1">
          <mxGeometry x="348" y="890" width="155.51149999999998" height="29.9212" as="geometry" />
        </mxCell>
        <mxCell id="inlszF1YrQIbjWRIglU9-2" value="Hierarchy" style="text;strokeColor=none;align=right;fillColor=none;html=1;verticalAlign=middle;whiteSpace=wrap;rounded=0;" vertex="1" parent="1">
          <mxGeometry x="250" y="890" width="90.551" height="29.9212" as="geometry" />
        </mxCell>
        <mxCell id="inlszF1YrQIbjWRIglU9-3" value="" style="rounded=0;whiteSpace=wrap;html=1;" vertex="1" parent="1">
          <mxGeometry x="622" y="890" width="155.51149999999998" height="29.9212" as="geometry" />
        </mxCell>
        <mxCell id="inlszF1YrQIbjWRIglU9-4" value="Identifier" style="text;strokeColor=none;align=right;fillColor=none;html=1;verticalAlign=middle;whiteSpace=wrap;rounded=0;" vertex="1" parent="1">
          <mxGeometry x="522" y="890" width="91.55" height="29.92" as="geometry" />
        </mxCell>
        <mxCell id="inlszF1YrQIbjWRIglU9-5" value="" style="rounded=0;whiteSpace=wrap;html=1;" vertex="1" parent="1">
          <mxGeometry x="348" y="930" width="155.51149999999998" height="29.9212" as="geometry" />
        </mxCell>
        <mxCell id="inlszF1YrQIbjWRIglU9-6" value="Login Name" style="text;strokeColor=none;align=right;fillColor=none;html=1;verticalAlign=middle;whiteSpace=wrap;rounded=0;" vertex="1" parent="1">
          <mxGeometry x="250" y="930" width="90.551" height="29.9212" as="geometry" />
        </mxCell>
        <mxCell id="inlszF1YrQIbjWRIglU9-7" value="" style="rounded=0;whiteSpace=wrap;html=1;" vertex="1" parent="1">
          <mxGeometry x="622" y="930" width="155.51149999999998" height="29.9212" as="geometry" />
        </mxCell>
        <mxCell id="inlszF1YrQIbjWRIglU9-8" value="Unified Login" style="text;strokeColor=none;align=right;fillColor=none;html=1;verticalAlign=middle;whiteSpace=wrap;rounded=0;" vertex="1" parent="1">
          <mxGeometry x="512" y="930" width="101.55" height="29.92" as="geometry" />
        </mxCell>
        <mxCell id="inlszF1YrQIbjWRIglU9-9" value="" style="rounded=0;whiteSpace=wrap;html=1;" vertex="1" parent="1">
          <mxGeometry x="348" y="970" width="155.51149999999998" height="29.9212" as="geometry" />
        </mxCell>
        <mxCell id="inlszF1YrQIbjWRIglU9-10" value="Password" style="text;strokeColor=none;align=right;fillColor=none;html=1;verticalAlign=middle;whiteSpace=wrap;rounded=0;" vertex="1" parent="1">
          <mxGeometry x="250" y="970" width="90.551" height="29.9212" as="geometry" />
        </mxCell>
        <mxCell id="inlszF1YrQIbjWRIglU9-11" value="" style="rounded=0;whiteSpace=wrap;html=1;" vertex="1" parent="1">
          <mxGeometry x="622" y="970" width="155.51149999999998" height="29.9212" as="geometry" />
        </mxCell>
        <mxCell id="inlszF1YrQIbjWRIglU9-12" value="Anonymous Login" style="text;strokeColor=none;align=right;fillColor=none;html=1;verticalAlign=middle;whiteSpace=wrap;rounded=0;" vertex="1" parent="1">
          <mxGeometry x="512" y="970" width="101.55" height="29.92" as="geometry" />
        </mxCell>
        <mxCell id="inlszF1YrQIbjWRIglU9-13" value="" style="rounded=0;whiteSpace=wrap;html=1;" vertex="1" parent="1">
          <mxGeometry x="348" y="1010" width="155.51149999999998" height="29.9212" as="geometry" />
        </mxCell>
        <mxCell id="inlszF1YrQIbjWRIglU9-14" value="Common Name" style="text;strokeColor=none;align=right;fillColor=none;html=1;verticalAlign=middle;whiteSpace=wrap;rounded=0;" vertex="1" parent="1">
          <mxGeometry x="250" y="1010" width="90.551" height="29.9212" as="geometry" />
        </mxCell>
        <mxCell id="inlszF1YrQIbjWRIglU9-15" value="" style="rounded=0;whiteSpace=wrap;html=1;" vertex="1" parent="1">
          <mxGeometry x="622" y="1010" width="155.51149999999998" height="29.9212" as="geometry" />
        </mxCell>
        <mxCell id="inlszF1YrQIbjWRIglU9-16" value="e-Mail" style="text;strokeColor=none;align=right;fillColor=none;html=1;verticalAlign=middle;whiteSpace=wrap;rounded=0;" vertex="1" parent="1">
          <mxGeometry x="512" y="1010" width="101.55" height="29.92" as="geometry" />
        </mxCell>
        <mxCell id="inlszF1YrQIbjWRIglU9-17" value="" style="rounded=0;whiteSpace=wrap;html=1;" vertex="1" parent="1">
          <mxGeometry x="348" y="1050" width="155.51149999999998" height="29.9212" as="geometry" />
        </mxCell>
        <mxCell id="inlszF1YrQIbjWRIglU9-18" value="Principal Name" style="text;strokeColor=none;align=right;fillColor=none;html=1;verticalAlign=middle;whiteSpace=wrap;rounded=0;" vertex="1" parent="1">
          <mxGeometry x="250" y="1050" width="90.551" height="29.9212" as="geometry" />
        </mxCell>
        <mxCell id="inlszF1YrQIbjWRIglU9-19" value="" style="rounded=0;whiteSpace=wrap;html=1;" vertex="1" parent="1">
          <mxGeometry x="622" y="1050" width="155.51149999999998" height="29.9212" as="geometry" />
        </mxCell>
        <mxCell id="inlszF1YrQIbjWRIglU9-20" value="Telephone" style="text;strokeColor=none;align=right;fillColor=none;html=1;verticalAlign=middle;whiteSpace=wrap;rounded=0;" vertex="1" parent="1">
          <mxGeometry x="512" y="1050" width="101.55" height="29.92" as="geometry" />
        </mxCell>
        <mxCell id="inlszF1YrQIbjWRIglU9-21" value="" style="rounded=0;whiteSpace=wrap;html=1;" vertex="1" parent="1">
          <mxGeometry x="348" y="1090" width="155.51149999999998" height="29.9212" as="geometry" />
        </mxCell>
        <mxCell id="inlszF1YrQIbjWRIglU9-22" value="Title" style="text;strokeColor=none;align=right;fillColor=none;html=1;verticalAlign=middle;whiteSpace=wrap;rounded=0;" vertex="1" parent="1">
          <mxGeometry x="250" y="1090" width="90.551" height="29.9212" as="geometry" />
        </mxCell>
        <mxCell id="inlszF1YrQIbjWRIglU9-23" value="" style="rounded=0;whiteSpace=wrap;html=1;" vertex="1" parent="1">
          <mxGeometry x="622" y="1090" width="155.51149999999998" height="29.9212" as="geometry" />
        </mxCell>
        <mxCell id="inlszF1YrQIbjWRIglU9-24" value="Language" style="text;strokeColor=none;align=right;fillColor=none;html=1;verticalAlign=middle;whiteSpace=wrap;rounded=0;" vertex="1" parent="1">
          <mxGeometry x="512" y="1090" width="101.55" height="29.92" as="geometry" />
        </mxCell>
        <mxCell id="inlszF1YrQIbjWRIglU9-25" value="" style="rounded=0;whiteSpace=wrap;html=1;" vertex="1" parent="1">
          <mxGeometry x="348" y="1130" width="155.51149999999998" height="29.9212" as="geometry" />
        </mxCell>
        <mxCell id="inlszF1YrQIbjWRIglU9-26" value="Last Name" style="text;strokeColor=none;align=right;fillColor=none;html=1;verticalAlign=middle;whiteSpace=wrap;rounded=0;" vertex="1" parent="1">
          <mxGeometry x="250" y="1130" width="90.551" height="29.9212" as="geometry" />
        </mxCell>
        <mxCell id="inlszF1YrQIbjWRIglU9-27" value="" style="rounded=0;whiteSpace=wrap;html=1;" vertex="1" parent="1">
          <mxGeometry x="622" y="1130" width="155.51149999999998" height="29.9212" as="geometry" />
        </mxCell>
        <mxCell id="inlszF1YrQIbjWRIglU9-28" value="Participant" style="text;strokeColor=none;align=right;fillColor=none;html=1;verticalAlign=middle;whiteSpace=wrap;rounded=0;" vertex="1" parent="1">
          <mxGeometry x="512" y="1130" width="101.55" height="29.92" as="geometry" />
        </mxCell>
        <mxCell id="inlszF1YrQIbjWRIglU9-29" value="" style="rounded=0;whiteSpace=wrap;html=1;" vertex="1" parent="1">
          <mxGeometry x="348" y="1170" width="155.51149999999998" height="29.9212" as="geometry" />
        </mxCell>
        <mxCell id="inlszF1YrQIbjWRIglU9-30" value="First Name" style="text;strokeColor=none;align=right;fillColor=none;html=1;verticalAlign=middle;whiteSpace=wrap;rounded=0;" vertex="1" parent="1">
          <mxGeometry x="250" y="1170" width="90.551" height="29.9212" as="geometry" />
        </mxCell>
        <mxCell id="inlszF1YrQIbjWRIglU9-31" value="" style="rounded=0;whiteSpace=wrap;html=1;" vertex="1" parent="1">
          <mxGeometry x="622" y="1170" width="155.51149999999998" height="29.9212" as="geometry" />
        </mxCell>
        <mxCell id="inlszF1YrQIbjWRIglU9-32" value="Organisation" style="text;strokeColor=none;align=right;fillColor=none;html=1;verticalAlign=middle;whiteSpace=wrap;rounded=0;" vertex="1" parent="1">
          <mxGeometry x="512" y="1170" width="101.55" height="29.92" as="geometry" />
        </mxCell>
        <mxCell id="inlszF1YrQIbjWRIglU9-33" value="" style="rounded=0;whiteSpace=wrap;html=1;" vertex="1" parent="1">
          <mxGeometry x="348" y="1210" width="155.51149999999998" height="29.9212" as="geometry" />
        </mxCell>
        <mxCell id="inlszF1YrQIbjWRIglU9-34" value="Middle Name" style="text;strokeColor=none;align=right;fillColor=none;html=1;verticalAlign=middle;whiteSpace=wrap;rounded=0;" vertex="1" parent="1">
          <mxGeometry x="250" y="1210" width="90.551" height="29.9212" as="geometry" />
        </mxCell>
        <mxCell id="inlszF1YrQIbjWRIglU9-35" value="" style="rounded=0;whiteSpace=wrap;html=1;" vertex="1" parent="1">
          <mxGeometry x="622" y="1210" width="155.51149999999998" height="29.9212" as="geometry" />
        </mxCell>
        <mxCell id="inlszF1YrQIbjWRIglU9-36" value="Division" style="text;strokeColor=none;align=right;fillColor=none;html=1;verticalAlign=middle;whiteSpace=wrap;rounded=0;" vertex="1" parent="1">
          <mxGeometry x="512" y="1210" width="101.55" height="29.92" as="geometry" />
        </mxCell>
        <mxCell id="inlszF1YrQIbjWRIglU9-37" value="Department" style="text;strokeColor=none;align=right;fillColor=none;html=1;verticalAlign=middle;whiteSpace=wrap;rounded=0;" vertex="1" parent="1">
          <mxGeometry x="512" y="1250" width="101.55" height="29.92" as="geometry" />
        </mxCell>
        <mxCell id="inlszF1YrQIbjWRIglU9-38" value="" style="rounded=0;whiteSpace=wrap;html=1;" vertex="1" parent="1">
          <mxGeometry x="622" y="1250" width="155.51149999999998" height="29.9212" as="geometry" />
        </mxCell>
        <mxCell id="inlszF1YrQIbjWRIglU9-39" value="" style="rounded=0;whiteSpace=wrap;html=1;" vertex="1" parent="1">
          <mxGeometry x="348" y="1250" width="155.51149999999998" height="29.9212" as="geometry" />
        </mxCell>
        <mxCell id="inlszF1YrQIbjWRIglU9-40" value="Locality" style="text;strokeColor=none;align=right;fillColor=none;html=1;verticalAlign=middle;whiteSpace=wrap;rounded=0;" vertex="1" parent="1">
          <mxGeometry x="248" y="1250" width="91.55" height="29.92" as="geometry" />
        </mxCell>
      </root>
    </mxGraphModel>
  </diagram>
</mxfile>
